solid OpenSCAD_Model
  facet normal 0 0 -1
    outer loop
      vertex -65 100 0
      vertex -64.6722 103.119 0
      vertex -64.6722 96.8813 0
    endloop
  endfacet
  facet normal 0 0 -1
    outer loop
      vertex -64.6722 96.8813 0
      vertex -64.6722 103.119 0
      vertex -63.7032 106.101 0
    endloop
  endfacet
  facet normal 0 0 -1
    outer loop
      vertex -64.6722 96.8813 0
      vertex -63.7032 106.101 0
      vertex -62.1353 108.817 0
    endloop
  endfacet
  facet normal 0 0 -1
    outer loop
      vertex -64.6722 96.8813 0
      vertex -62.1353 108.817 0
      vertex -60.037 111.147 0
    endloop
  endfacet
  facet normal 0 0 -1
    outer loop
      vertex -64.6722 96.8813 0
      vertex -60.037 111.147 0
      vertex -57.5 112.99 0
    endloop
  endfacet
  facet normal 0 0 -1
    outer loop
      vertex -64.6722 96.8813 0
      vertex -57.5 112.99 0
      vertex -54.6353 114.266 0
    endloop
  endfacet
  facet normal 0 0 -1
    outer loop
      vertex -64.6722 96.8813 0
      vertex -54.6353 114.266 0
      vertex -51.5679 114.918 0
    endloop
  endfacet
  facet normal 0 0 -1
    outer loop
      vertex -64.6722 96.8813 0
      vertex -51.5679 114.918 0
      vertex -50 114.918 0
    endloop
  endfacet
  facet normal 0 0 -1
    outer loop
      vertex -50 114.918 0
      vertex -50 115 0
      vertex 50 115 0
    endloop
  endfacet
  facet normal 0 0 -1
    outer loop
      vertex -48.75 100 0
      vertex 57.5 112.99 0
      vertex -49.6137 98.8112 0
    endloop
  endfacet
  facet normal 0 0 -1
    outer loop
      vertex -48.75 100 0
      vertex 54.6353 114.266 0
      vertex 57.5 112.99 0
    endloop
  endfacet
  facet normal 0 0 -1
    outer loop
      vertex -48.75 100 0
      vertex 51.5679 114.918 0
      vertex 54.6353 114.266 0
    endloop
  endfacet
  facet normal 0 0 -1
    outer loop
      vertex -48.75 100 0
      vertex 50 114.918 0
      vertex 51.5679 114.918 0
    endloop
  endfacet
  facet normal 0 0 -1
    outer loop
      vertex -49.6137 98.8112 0
      vertex 57.5 112.99 0
      vertex 60.037 111.147 0
    endloop
  endfacet
  facet normal 0 0 -1
    outer loop
      vertex -64.6722 96.8813 0
      vertex 60.037 111.147 0
      vertex 62.1353 108.817 0
    endloop
  endfacet
  facet normal 0 0 -1
    outer loop
      vertex -64.6722 96.8813 0
      vertex 62.1353 108.817 0
      vertex 63.7032 106.101 0
    endloop
  endfacet
  facet normal 0 0 -1
    outer loop
      vertex -64.6722 96.8813 0
      vertex 63.7032 106.101 0
      vertex 64.6722 103.119 0
    endloop
  endfacet
  facet normal 0 0 -1
    outer loop
      vertex 50.3863 101.189 0
      vertex 65 100 0
      vertex 51.25 100 0
    endloop
  endfacet
  facet normal 0 0 -1
    outer loop
      vertex -64.6722 96.8813 0
      vertex 64.6722 96.8813 0
      vertex 63.7032 93.8989 0
    endloop
  endfacet
  facet normal 0 0 -1
    outer loop
      vertex -64.6722 96.8813 0
      vertex 63.7032 93.8989 0
      vertex 62.1353 91.1832 0
    endloop
  endfacet
  facet normal 0 0 -1
    outer loop
      vertex -64.6722 96.8813 0
      vertex 62.1353 91.1832 0
      vertex 60.037 88.8528 0
    endloop
  endfacet
  facet normal 0 0 -1
    outer loop
      vertex -64.6722 96.8813 0
      vertex 60.037 88.8528 0
      vertex 57.5 87.0096 0
    endloop
  endfacet
  facet normal 0 0 -1
    outer loop
      vertex -64.6722 96.8813 0
      vertex 57.5 87.0096 0
      vertex 54.6353 85.7342 0
    endloop
  endfacet
  facet normal 0 0 -1
    outer loop
      vertex -64.6722 96.8813 0
      vertex 54.6353 85.7342 0
      vertex 51.5679 85.0822 0
    endloop
  endfacet
  facet normal 0 0 -1
    outer loop
      vertex -64.6722 96.8813 0
      vertex 51.5679 85.0822 0
      vertex 50 85.0822 0
    endloop
  endfacet
  facet normal 0 0 -1
    outer loop
      vertex -64.6722 96.8813 0
      vertex 50 85.0822 0
      vertex 50 85 0
    endloop
  endfacet
  facet normal 0 0 -1
    outer loop
      vertex -50 85.0822 0
      vertex 50 85 0
      vertex -50 85 0
    endloop
  endfacet
  facet normal 0 0 -1
    outer loop
      vertex -64.6722 96.8813 0
      vertex 50 85 0
      vertex -50 85.0822 0
    endloop
  endfacet
  facet normal 0 0 -1
    outer loop
      vertex -49.6137 98.8112 0
      vertex -64.6722 96.8813 0
      vertex -51.0113 99.2653 0
    endloop
  endfacet
  facet normal 0 0 -1
    outer loop
      vertex -64.6722 96.8813 0
      vertex -51.5679 85.0822 0
      vertex -54.6353 85.7342 0
    endloop
  endfacet
  facet normal 0 0 -1
    outer loop
      vertex -64.6722 96.8813 0
      vertex -54.6353 85.7342 0
      vertex -57.5 87.0096 0
    endloop
  endfacet
  facet normal 0 0 -1
    outer loop
      vertex -64.6722 96.8813 0
      vertex -57.5 87.0096 0
      vertex -60.037 88.8528 0
    endloop
  endfacet
  facet normal 0 0 -1
    outer loop
      vertex -64.6722 96.8813 0
      vertex -60.037 88.8528 0
      vertex -62.1353 91.1832 0
    endloop
  endfacet
  facet normal 0 0 -1
    outer loop
      vertex -64.6722 96.8813 0
      vertex -62.1353 91.1832 0
      vertex -63.7032 93.8989 0
    endloop
  endfacet
  facet normal 0 0 -1
    outer loop
      vertex 48.9887 99.2653 0
      vertex -64.6722 96.8813 0
      vertex 48.9887 100.735 0
    endloop
  endfacet
  facet normal 0 0 -1
    outer loop
      vertex -50 114.918 0
      vertex -51.0113 100.735 0
      vertex -64.6722 96.8813 0
    endloop
  endfacet
  facet normal 0 0 -1
    outer loop
      vertex -49.6137 101.189 0
      vertex 50 115 0
      vertex -48.75 100 0
    endloop
  endfacet
  facet normal 0 0 -1
    outer loop
      vertex -51.0113 100.735 0
      vertex -51.0113 99.2653 0
      vertex -64.6722 96.8813 0
    endloop
  endfacet
  facet normal 0 0 -1
    outer loop
      vertex -48.75 100 0
      vertex 50 115 0
      vertex 50 114.918 0
    endloop
  endfacet
  facet normal 0 0 -1
    outer loop
      vertex -64.6722 96.8813 0
      vertex -49.6137 98.8112 0
      vertex 60.037 111.147 0
    endloop
  endfacet
  facet normal 0 0 -1
    outer loop
      vertex 50.3863 101.189 0
      vertex 64.6722 103.119 0
      vertex 65 100 0
    endloop
  endfacet
  facet normal 0 0 -1
    outer loop
      vertex -50 114.918 0
      vertex 50 115 0
      vertex -49.6137 101.189 0
    endloop
  endfacet
  facet normal 0 0 -1
    outer loop
      vertex -50 114.918 0
      vertex -49.6137 101.189 0
      vertex -51.0113 100.735 0
    endloop
  endfacet
  facet normal 0 0 -1
    outer loop
      vertex 51.25 100 0
      vertex 65 100 0
      vertex 64.6722 96.8813 0
    endloop
  endfacet
  facet normal 0 0 -1
    outer loop
      vertex -64.6722 96.8813 0
      vertex 48.9887 99.2653 0
      vertex 50.3863 98.8112 0
    endloop
  endfacet
  facet normal 0 0 -1
    outer loop
      vertex -64.6722 96.8813 0
      vertex 50.3863 98.8112 0
      vertex 64.6722 96.8813 0
    endloop
  endfacet
  facet normal 0 0 -1
    outer loop
      vertex 51.25 100 0
      vertex 64.6722 96.8813 0
      vertex 50.3863 98.8112 0
    endloop
  endfacet
  facet normal 0 0 -1
    outer loop
      vertex -64.6722 96.8813 0
      vertex 64.6722 103.119 0
      vertex 50.3863 101.189 0
    endloop
  endfacet
  facet normal 0 0 -1
    outer loop
      vertex -64.6722 96.8813 0
      vertex 50.3863 101.189 0
      vertex 48.9887 100.735 0
    endloop
  endfacet
  facet normal 0 0 -1
    outer loop
      vertex -51.5679 85.0822 0
      vertex -64.6722 96.8813 0
      vertex -50 85.0822 0
    endloop
  endfacet
  facet normal -0.994522 0.104528 0
    outer loop
      vertex -65 100 0
      vertex -65 100 3
      vertex -64.6722 103.119 0
    endloop
  endfacet
  facet normal -0.994522 0.104528 0
    outer loop
      vertex -64.6722 103.119 0
      vertex -65 100 3
      vertex -64.6722 103.119 3
    endloop
  endfacet
  facet normal -0.994522 -0.104528 0
    outer loop
      vertex -65 100 0
      vertex -64.6722 96.8813 0
      vertex -65 100 3
    endloop
  endfacet
  facet normal -0.994522 -0.104528 0
    outer loop
      vertex -65 100 3
      vertex -64.6722 96.8813 0
      vertex -64.6722 96.8813 3
    endloop
  endfacet
  facet normal -0.951057 -0.309017 0
    outer loop
      vertex -64.6722 96.8813 0
      vertex -63.7032 93.8989 0
      vertex -64.6722 96.8813 3
    endloop
  endfacet
  facet normal -0.951057 -0.309017 0
    outer loop
      vertex -64.6722 96.8813 3
      vertex -63.7032 93.8989 0
      vertex -63.7032 93.8989 3
    endloop
  endfacet
  facet normal -0.866025 -0.5 0
    outer loop
      vertex -63.7032 93.8989 0
      vertex -62.1353 91.1832 0
      vertex -63.7032 93.8989 3
    endloop
  endfacet
  facet normal -0.866025 -0.5 0
    outer loop
      vertex -63.7032 93.8989 3
      vertex -62.1353 91.1832 0
      vertex -62.1353 91.1832 3
    endloop
  endfacet
  facet normal -0.743145 -0.669131 0
    outer loop
      vertex -62.1353 91.1832 0
      vertex -60.037 88.8528 0
      vertex -62.1353 91.1832 3
    endloop
  endfacet
  facet normal -0.743145 -0.669131 0
    outer loop
      vertex -62.1353 91.1832 3
      vertex -60.037 88.8528 0
      vertex -60.037 88.8528 3
    endloop
  endfacet
  facet normal -0.587785 -0.809017 0
    outer loop
      vertex -60.037 88.8528 3
      vertex -60.037 88.8528 0
      vertex -57.5 87.0096 0
    endloop
  endfacet
  facet normal -0.587785 -0.809017 0
    outer loop
      vertex -57.5 87.0096 3
      vertex -60.037 88.8528 3
      vertex -57.5 87.0096 0
    endloop
  endfacet
  facet normal -0.406737 -0.913545 0
    outer loop
      vertex -57.5 87.0096 3
      vertex -57.5 87.0096 0
      vertex -54.6353 85.7342 0
    endloop
  endfacet
  facet normal -0.406737 -0.913545 0
    outer loop
      vertex -54.6353 85.7342 3
      vertex -57.5 87.0096 3
      vertex -54.6353 85.7342 0
    endloop
  endfacet
  facet normal -0.207911 -0.978148 0
    outer loop
      vertex -54.6353 85.7342 3
      vertex -54.6353 85.7342 0
      vertex -51.5679 85.0822 0
    endloop
  endfacet
  facet normal -0.207911 -0.978148 0
    outer loop
      vertex -51.5679 85.0822 3
      vertex -54.6353 85.7342 3
      vertex -51.5679 85.0822 0
    endloop
  endfacet
  facet normal 0 -1 0
    outer loop
      vertex -51.5679 85.0822 3
      vertex -51.5679 85.0822 0
      vertex -50 85.0822 0
    endloop
  endfacet
  facet normal 0 -1 0
    outer loop
      vertex -50 85.0822 3
      vertex -51.5679 85.0822 3
      vertex -50 85.0822 0
    endloop
  endfacet
  facet normal -1 0 0
    outer loop
      vertex -50 85 0
      vertex -50 85 3
      vertex -50 85.0822 0
    endloop
  endfacet
  facet normal -1 0 0
    outer loop
      vertex -50 85.0822 0
      vertex -50 85 3
      vertex -50 85.0822 3
    endloop
  endfacet
  facet normal 0 -1 0
    outer loop
      vertex -50 85 3
      vertex -50 85 0
      vertex 50 85 0
    endloop
  endfacet
  facet normal 0 -1 0
    outer loop
      vertex 50 85 3
      vertex -50 85 3
      vertex 50 85 0
    endloop
  endfacet
  facet normal 1 0 0
    outer loop
      vertex 50 85 3
      vertex 50 85 0
      vertex 50 85.0822 0
    endloop
  endfacet
  facet normal 1 0 0
    outer loop
      vertex 50 85.0822 3
      vertex 50 85 3
      vertex 50 85.0822 0
    endloop
  endfacet
  facet normal 0 -1 0
    outer loop
      vertex 50 85.0822 3
      vertex 50 85.0822 0
      vertex 51.5679 85.0822 0
    endloop
  endfacet
  facet normal 0 -1 0
    outer loop
      vertex 51.5679 85.0822 3
      vertex 50 85.0822 3
      vertex 51.5679 85.0822 0
    endloop
  endfacet
  facet normal 0.207911 -0.978148 0
    outer loop
      vertex 51.5679 85.0822 3
      vertex 51.5679 85.0822 0
      vertex 54.6353 85.7342 0
    endloop
  endfacet
  facet normal 0.207911 -0.978148 0
    outer loop
      vertex 54.6353 85.7342 3
      vertex 51.5679 85.0822 3
      vertex 54.6353 85.7342 0
    endloop
  endfacet
  facet normal 0.406737 -0.913545 0
    outer loop
      vertex 54.6353 85.7342 3
      vertex 54.6353 85.7342 0
      vertex 57.5 87.0096 0
    endloop
  endfacet
  facet normal 0.406737 -0.913545 0
    outer loop
      vertex 57.5 87.0096 3
      vertex 54.6353 85.7342 3
      vertex 57.5 87.0096 0
    endloop
  endfacet
  facet normal 0.587785 -0.809017 0
    outer loop
      vertex 57.5 87.0096 3
      vertex 57.5 87.0096 0
      vertex 60.037 88.8528 0
    endloop
  endfacet
  facet normal 0.587785 -0.809017 0
    outer loop
      vertex 60.037 88.8528 3
      vertex 57.5 87.0096 3
      vertex 60.037 88.8528 0
    endloop
  endfacet
  facet normal 0.743145 -0.669131 0
    outer loop
      vertex 60.037 88.8528 3
      vertex 60.037 88.8528 0
      vertex 62.1353 91.1832 0
    endloop
  endfacet
  facet normal 0.743145 -0.669131 0
    outer loop
      vertex 62.1353 91.1832 3
      vertex 60.037 88.8528 3
      vertex 62.1353 91.1832 0
    endloop
  endfacet
  facet normal 0.866025 -0.5 0
    outer loop
      vertex 62.1353 91.1832 3
      vertex 62.1353 91.1832 0
      vertex 63.7032 93.8989 0
    endloop
  endfacet
  facet normal 0.866025 -0.5 0
    outer loop
      vertex 63.7032 93.8989 3
      vertex 62.1353 91.1832 3
      vertex 63.7032 93.8989 0
    endloop
  endfacet
  facet normal 0.951057 -0.309017 0
    outer loop
      vertex 63.7032 93.8989 3
      vertex 63.7032 93.8989 0
      vertex 64.6722 96.8813 0
    endloop
  endfacet
  facet normal 0.951057 -0.309017 0
    outer loop
      vertex 64.6722 96.8813 3
      vertex 63.7032 93.8989 3
      vertex 64.6722 96.8813 0
    endloop
  endfacet
  facet normal 0.994522 -0.104528 0
    outer loop
      vertex 64.6722 96.8813 3
      vertex 64.6722 96.8813 0
      vertex 65 100 0
    endloop
  endfacet
  facet normal 0.994522 -0.104528 0
    outer loop
      vertex 65 100 3
      vertex 64.6722 96.8813 3
      vertex 65 100 0
    endloop
  endfacet
  facet normal 0.994522 0.104528 0
    outer loop
      vertex 65 100 0
      vertex 64.6722 103.119 0
      vertex 64.6722 103.119 3
    endloop
  endfacet
  facet normal 0.994522 0.104528 0
    outer loop
      vertex 65 100 3
      vertex 65 100 0
      vertex 64.6722 103.119 3
    endloop
  endfacet
  facet normal 0.951057 0.309017 0
    outer loop
      vertex 64.6722 103.119 0
      vertex 63.7032 106.101 0
      vertex 63.7032 106.101 3
    endloop
  endfacet
  facet normal 0.951057 0.309017 0
    outer loop
      vertex 64.6722 103.119 3
      vertex 64.6722 103.119 0
      vertex 63.7032 106.101 3
    endloop
  endfacet
  facet normal 0.866025 0.5 0
    outer loop
      vertex 63.7032 106.101 0
      vertex 62.1353 108.817 0
      vertex 62.1353 108.817 3
    endloop
  endfacet
  facet normal 0.866025 0.5 0
    outer loop
      vertex 63.7032 106.101 3
      vertex 63.7032 106.101 0
      vertex 62.1353 108.817 3
    endloop
  endfacet
  facet normal 0.743145 0.669131 0
    outer loop
      vertex 62.1353 108.817 0
      vertex 60.037 111.147 0
      vertex 60.037 111.147 3
    endloop
  endfacet
  facet normal 0.743145 0.669131 0
    outer loop
      vertex 62.1353 108.817 3
      vertex 62.1353 108.817 0
      vertex 60.037 111.147 3
    endloop
  endfacet
  facet normal 0.587785 0.809017 0
    outer loop
      vertex 57.5 112.99 0
      vertex 57.5 112.99 3
      vertex 60.037 111.147 0
    endloop
  endfacet
  facet normal 0.587785 0.809017 0
    outer loop
      vertex 60.037 111.147 0
      vertex 57.5 112.99 3
      vertex 60.037 111.147 3
    endloop
  endfacet
  facet normal 0.406737 0.913545 0
    outer loop
      vertex 54.6353 114.266 0
      vertex 54.6353 114.266 3
      vertex 57.5 112.99 0
    endloop
  endfacet
  facet normal 0.406737 0.913545 0
    outer loop
      vertex 57.5 112.99 0
      vertex 54.6353 114.266 3
      vertex 57.5 112.99 3
    endloop
  endfacet
  facet normal 0.207911 0.978148 0
    outer loop
      vertex 51.5679 114.918 0
      vertex 51.5679 114.918 3
      vertex 54.6353 114.266 0
    endloop
  endfacet
  facet normal 0.207911 0.978148 0
    outer loop
      vertex 54.6353 114.266 0
      vertex 51.5679 114.918 3
      vertex 54.6353 114.266 3
    endloop
  endfacet
  facet normal 0 1 0
    outer loop
      vertex 50 114.918 0
      vertex 50 114.918 3
      vertex 51.5679 114.918 0
    endloop
  endfacet
  facet normal 0 1 0
    outer loop
      vertex 51.5679 114.918 0
      vertex 50 114.918 3
      vertex 51.5679 114.918 3
    endloop
  endfacet
  facet normal 1 0 0
    outer loop
      vertex 50 114.918 3
      vertex 50 114.918 0
      vertex 50 115 0
    endloop
  endfacet
  facet normal 1 0 0
    outer loop
      vertex 50 115 3
      vertex 50 114.918 3
      vertex 50 115 0
    endloop
  endfacet
  facet normal 0 1 0
    outer loop
      vertex -50 115 0
      vertex -50 115 3
      vertex 50 115 0
    endloop
  endfacet
  facet normal 0 1 0
    outer loop
      vertex 50 115 0
      vertex -50 115 3
      vertex 50 115 3
    endloop
  endfacet
  facet normal -1 0 0
    outer loop
      vertex -50 114.918 0
      vertex -50 114.918 3
      vertex -50 115 0
    endloop
  endfacet
  facet normal -1 0 0
    outer loop
      vertex -50 115 0
      vertex -50 114.918 3
      vertex -50 115 3
    endloop
  endfacet
  facet normal 0 1 0
    outer loop
      vertex -51.5679 114.918 0
      vertex -51.5679 114.918 3
      vertex -50 114.918 0
    endloop
  endfacet
  facet normal 0 1 0
    outer loop
      vertex -50 114.918 0
      vertex -51.5679 114.918 3
      vertex -50 114.918 3
    endloop
  endfacet
  facet normal -0.207911 0.978148 0
    outer loop
      vertex -54.6353 114.266 0
      vertex -54.6353 114.266 3
      vertex -51.5679 114.918 0
    endloop
  endfacet
  facet normal -0.207911 0.978148 0
    outer loop
      vertex -51.5679 114.918 0
      vertex -54.6353 114.266 3
      vertex -51.5679 114.918 3
    endloop
  endfacet
  facet normal -0.406737 0.913545 0
    outer loop
      vertex -57.5 112.99 0
      vertex -57.5 112.99 3
      vertex -54.6353 114.266 0
    endloop
  endfacet
  facet normal -0.406737 0.913545 0
    outer loop
      vertex -54.6353 114.266 0
      vertex -57.5 112.99 3
      vertex -54.6353 114.266 3
    endloop
  endfacet
  facet normal -0.587785 0.809017 0
    outer loop
      vertex -60.037 111.147 0
      vertex -60.037 111.147 3
      vertex -57.5 112.99 0
    endloop
  endfacet
  facet normal -0.587785 0.809017 0
    outer loop
      vertex -57.5 112.99 0
      vertex -60.037 111.147 3
      vertex -57.5 112.99 3
    endloop
  endfacet
  facet normal -0.743145 0.669131 0
    outer loop
      vertex -62.1353 108.817 0
      vertex -62.1353 108.817 3
      vertex -60.037 111.147 0
    endloop
  endfacet
  facet normal -0.743145 0.669131 0
    outer loop
      vertex -60.037 111.147 0
      vertex -62.1353 108.817 3
      vertex -60.037 111.147 3
    endloop
  endfacet
  facet normal -0.866025 0.5 0
    outer loop
      vertex -63.7032 106.101 0
      vertex -63.7032 106.101 3
      vertex -62.1353 108.817 0
    endloop
  endfacet
  facet normal -0.866025 0.5 0
    outer loop
      vertex -62.1353 108.817 0
      vertex -63.7032 106.101 3
      vertex -62.1353 108.817 3
    endloop
  endfacet
  facet normal -0.951057 0.309017 0
    outer loop
      vertex -64.6722 103.119 0
      vertex -64.6722 103.119 3
      vertex -63.7032 106.101 0
    endloop
  endfacet
  facet normal -0.951057 0.309017 0
    outer loop
      vertex -63.7032 106.101 0
      vertex -64.6722 103.119 3
      vertex -63.7032 106.101 3
    endloop
  endfacet
  facet normal 1 0 0
    outer loop
      vertex -51.0113 100.735 0
      vertex -51.0113 100.735 3
      vertex -51.0113 99.2653 3
    endloop
  endfacet
  facet normal 1 0 0
    outer loop
      vertex -51.0113 99.2653 0
      vertex -51.0113 100.735 0
      vertex -51.0113 99.2653 3
    endloop
  endfacet
  facet normal 0.309017 -0.951057 0
    outer loop
      vertex -49.6137 101.189 0
      vertex -49.6137 101.189 3
      vertex -51.0113 100.735 3
    endloop
  endfacet
  facet normal 0.309017 -0.951057 0
    outer loop
      vertex -51.0113 100.735 0
      vertex -49.6137 101.189 0
      vertex -51.0113 100.735 3
    endloop
  endfacet
  facet normal -0.809017 -0.587785 0
    outer loop
      vertex -48.75 100 3
      vertex -49.6137 101.189 3
      vertex -48.75 100 0
    endloop
  endfacet
  facet normal -0.809017 -0.587785 0
    outer loop
      vertex -48.75 100 0
      vertex -49.6137 101.189 3
      vertex -49.6137 101.189 0
    endloop
  endfacet
  facet normal -0.809017 0.587785 0
    outer loop
      vertex -48.75 100 3
      vertex -48.75 100 0
      vertex -49.6137 98.8112 3
    endloop
  endfacet
  facet normal -0.809017 0.587785 0
    outer loop
      vertex -49.6137 98.8112 3
      vertex -48.75 100 0
      vertex -49.6137 98.8112 0
    endloop
  endfacet
  facet normal 0.309017 0.951057 0
    outer loop
      vertex -49.6137 98.8112 3
      vertex -49.6137 98.8112 0
      vertex -51.0113 99.2653 3
    endloop
  endfacet
  facet normal 0.309017 0.951057 0
    outer loop
      vertex -51.0113 99.2653 3
      vertex -49.6137 98.8112 0
      vertex -51.0113 99.2653 0
    endloop
  endfacet
  facet normal 0.309017 -0.951057 0
    outer loop
      vertex 50.3863 101.189 0
      vertex 50.3863 101.189 3
      vertex 48.9887 100.735 3
    endloop
  endfacet
  facet normal 0.309017 -0.951057 0
    outer loop
      vertex 48.9887 100.735 0
      vertex 50.3863 101.189 0
      vertex 48.9887 100.735 3
    endloop
  endfacet
  facet normal 1 0 0
    outer loop
      vertex 48.9887 100.735 0
      vertex 48.9887 100.735 3
      vertex 48.9887 99.2653 3
    endloop
  endfacet
  facet normal 1 0 0
    outer loop
      vertex 48.9887 99.2653 0
      vertex 48.9887 100.735 0
      vertex 48.9887 99.2653 3
    endloop
  endfacet
  facet normal -0.809017 -0.587785 0
    outer loop
      vertex 51.25 100 3
      vertex 50.3863 101.189 3
      vertex 51.25 100 0
    endloop
  endfacet
  facet normal -0.809017 -0.587785 0
    outer loop
      vertex 51.25 100 0
      vertex 50.3863 101.189 3
      vertex 50.3863 101.189 0
    endloop
  endfacet
  facet normal -0.809017 0.587785 0
    outer loop
      vertex 51.25 100 3
      vertex 51.25 100 0
      vertex 50.3863 98.8112 3
    endloop
  endfacet
  facet normal -0.809017 0.587785 0
    outer loop
      vertex 50.3863 98.8112 3
      vertex 51.25 100 0
      vertex 50.3863 98.8112 0
    endloop
  endfacet
  facet normal 0.309017 0.951057 0
    outer loop
      vertex 50.3863 98.8112 3
      vertex 50.3863 98.8112 0
      vertex 48.9887 99.2653 3
    endloop
  endfacet
  facet normal 0.309017 0.951057 0
    outer loop
      vertex 48.9887 99.2653 3
      vertex 50.3863 98.8112 0
      vertex 48.9887 99.2653 0
    endloop
  endfacet
  facet normal 0 0 1
    outer loop
      vertex -64.6722 103.119 3
      vertex -65 100 3
      vertex -64.6722 96.8813 3
    endloop
  endfacet
  facet normal 0 0 1
    outer loop
      vertex -62.1353 91.1832 3
      vertex -64.6722 103.119 3
      vertex -63.7032 93.8989 3
    endloop
  endfacet
  facet normal 0 0 1
    outer loop
      vertex -63.7032 93.8989 3
      vertex -64.6722 103.119 3
      vertex -64.6722 96.8813 3
    endloop
  endfacet
  facet normal 0 0 1
    outer loop
      vertex -60.037 88.8528 3
      vertex -64.6722 103.119 3
      vertex -62.1353 91.1832 3
    endloop
  endfacet
  facet normal 0 0 1
    outer loop
      vertex -57.5 87.0096 3
      vertex -64.6722 103.119 3
      vertex -60.037 88.8528 3
    endloop
  endfacet
  facet normal 0 0 1
    outer loop
      vertex -54.6353 85.7342 3
      vertex -64.6722 103.119 3
      vertex -57.5 87.0096 3
    endloop
  endfacet
  facet normal 0 0 1
    outer loop
      vertex -51.5679 85.0822 3
      vertex -64.6722 103.119 3
      vertex -54.6353 85.7342 3
    endloop
  endfacet
  facet normal 0 0 1
    outer loop
      vertex -50 85.0822 3
      vertex -64.6722 103.119 3
      vertex -51.5679 85.0822 3
    endloop
  endfacet
  facet normal 0 0 1
    outer loop
      vertex -51.0113 99.2653 3
      vertex -64.6722 103.119 3
      vertex -50 85.0822 3
    endloop
  endfacet
  facet normal 0 0 1
    outer loop
      vertex 50 85 3
      vertex -50 85.0822 3
      vertex -50 85 3
    endloop
  endfacet
  facet normal 0 0 1
    outer loop
      vertex 48.9887 99.2653 3
      vertex 48.9887 100.735 3
      vertex -64.6722 103.119 3
    endloop
  endfacet
  facet normal 0 0 1
    outer loop
      vertex -49.6137 101.189 3
      vertex -48.75 100 3
      vertex 50 85 3
    endloop
  endfacet
  facet normal 0 0 1
    outer loop
      vertex 62.1353 91.1832 3
      vertex -64.6722 103.119 3
      vertex 60.037 88.8528 3
    endloop
  endfacet
  facet normal 0 0 1
    outer loop
      vertex 63.7032 93.8989 3
      vertex -64.6722 103.119 3
      vertex 62.1353 91.1832 3
    endloop
  endfacet
  facet normal 0 0 1
    outer loop
      vertex 64.6722 96.8813 3
      vertex -64.6722 103.119 3
      vertex 63.7032 93.8989 3
    endloop
  endfacet
  facet normal 0 0 1
    outer loop
      vertex 50.3863 98.8112 3
      vertex -64.6722 103.119 3
      vertex 64.6722 96.8813 3
    endloop
  endfacet
  facet normal 0 0 1
    outer loop
      vertex 63.7032 106.101 3
      vertex -64.6722 103.119 3
      vertex 64.6722 103.119 3
    endloop
  endfacet
  facet normal 0 0 1
    outer loop
      vertex 62.1353 108.817 3
      vertex -64.6722 103.119 3
      vertex 63.7032 106.101 3
    endloop
  endfacet
  facet normal 0 0 1
    outer loop
      vertex 60.037 111.147 3
      vertex -64.6722 103.119 3
      vertex 62.1353 108.817 3
    endloop
  endfacet
  facet normal 0 0 1
    outer loop
      vertex 57.5 112.99 3
      vertex -64.6722 103.119 3
      vertex 60.037 111.147 3
    endloop
  endfacet
  facet normal 0 0 1
    outer loop
      vertex 54.6353 114.266 3
      vertex -64.6722 103.119 3
      vertex 57.5 112.99 3
    endloop
  endfacet
  facet normal 0 0 1
    outer loop
      vertex 51.5679 114.918 3
      vertex -64.6722 103.119 3
      vertex 54.6353 114.266 3
    endloop
  endfacet
  facet normal 0 0 1
    outer loop
      vertex 50 114.918 3
      vertex -64.6722 103.119 3
      vertex 51.5679 114.918 3
    endloop
  endfacet
  facet normal 0 0 1
    outer loop
      vertex 50 115 3
      vertex -64.6722 103.119 3
      vertex 50 114.918 3
    endloop
  endfacet
  facet normal 0 0 1
    outer loop
      vertex -50 114.918 3
      vertex -64.6722 103.119 3
      vertex 50 115 3
    endloop
  endfacet
  facet normal 0 0 1
    outer loop
      vertex -49.6137 101.189 3
      vertex 54.6353 85.7342 3
      vertex 57.5 87.0096 3
    endloop
  endfacet
  facet normal 0 0 1
    outer loop
      vertex -50 115 3
      vertex -50 114.918 3
      vertex 50 115 3
    endloop
  endfacet
  facet normal 0 0 1
    outer loop
      vertex -49.6137 101.189 3
      vertex 51.5679 85.0822 3
      vertex 54.6353 85.7342 3
    endloop
  endfacet
  facet normal 0 0 1
    outer loop
      vertex -54.6353 114.266 3
      vertex -64.6722 103.119 3
      vertex -51.5679 114.918 3
    endloop
  endfacet
  facet normal 0 0 1
    outer loop
      vertex -57.5 112.99 3
      vertex -64.6722 103.119 3
      vertex -54.6353 114.266 3
    endloop
  endfacet
  facet normal 0 0 1
    outer loop
      vertex -60.037 111.147 3
      vertex -64.6722 103.119 3
      vertex -57.5 112.99 3
    endloop
  endfacet
  facet normal 0 0 1
    outer loop
      vertex -62.1353 108.817 3
      vertex -64.6722 103.119 3
      vertex -60.037 111.147 3
    endloop
  endfacet
  facet normal 0 0 1
    outer loop
      vertex -63.7032 106.101 3
      vertex -64.6722 103.119 3
      vertex -62.1353 108.817 3
    endloop
  endfacet
  facet normal 0 0 1
    outer loop
      vertex -49.6137 98.8112 3
      vertex -51.0113 99.2653 3
      vertex -50 85.0822 3
    endloop
  endfacet
  facet normal 0 0 1
    outer loop
      vertex -51.0113 100.735 3
      vertex -64.6722 103.119 3
      vertex -51.0113 99.2653 3
    endloop
  endfacet
  facet normal 0 0 1
    outer loop
      vertex 60.037 88.8528 3
      vertex -49.6137 101.189 3
      vertex 57.5 87.0096 3
    endloop
  endfacet
  facet normal 0 0 1
    outer loop
      vertex 60.037 88.8528 3
      vertex -64.6722 103.119 3
      vertex -49.6137 101.189 3
    endloop
  endfacet
  facet normal 0 0 1
    outer loop
      vertex 50 85 3
      vertex -49.6137 98.8112 3
      vertex -50 85.0822 3
    endloop
  endfacet
  facet normal 0 0 1
    outer loop
      vertex 50.3863 101.189 3
      vertex 51.25 100 3
      vertex 65 100 3
    endloop
  endfacet
  facet normal 0 0 1
    outer loop
      vertex 51.25 100 3
      vertex 64.6722 96.8813 3
      vertex 65 100 3
    endloop
  endfacet
  facet normal 0 0 1
    outer loop
      vertex 50.3863 101.189 3
      vertex -64.6722 103.119 3
      vertex 48.9887 100.735 3
    endloop
  endfacet
  facet normal 0 0 1
    outer loop
      vertex 51.25 100 3
      vertex 50.3863 98.8112 3
      vertex 64.6722 96.8813 3
    endloop
  endfacet
  facet normal 0 0 1
    outer loop
      vertex 64.6722 103.119 3
      vertex -64.6722 103.119 3
      vertex 50.3863 101.189 3
    endloop
  endfacet
  facet normal 0 0 1
    outer loop
      vertex 50.3863 101.189 3
      vertex 65 100 3
      vertex 64.6722 103.119 3
    endloop
  endfacet
  facet normal 0 0 1
    outer loop
      vertex 48.9887 99.2653 3
      vertex -64.6722 103.119 3
      vertex 50.3863 98.8112 3
    endloop
  endfacet
  facet normal 0 0 1
    outer loop
      vertex -50 114.918 3
      vertex -51.5679 114.918 3
      vertex -64.6722 103.119 3
    endloop
  endfacet
  facet normal 0 0 1
    outer loop
      vertex -49.6137 101.189 3
      vertex 50 85.0822 3
      vertex 51.5679 85.0822 3
    endloop
  endfacet
  facet normal 0 0 1
    outer loop
      vertex -49.6137 101.189 3
      vertex 50 85 3
      vertex 50 85.0822 3
    endloop
  endfacet
  facet normal 0 0 1
    outer loop
      vertex -48.75 100 3
      vertex -49.6137 98.8112 3
      vertex 50 85 3
    endloop
  endfacet
  facet normal 0 0 1
    outer loop
      vertex -51.0113 100.735 3
      vertex -49.6137 101.189 3
      vertex -64.6722 103.119 3
    endloop
  endfacet
  facet normal -1 0 0
    outer loop
      vertex -35 40 0
      vertex -35 40 30
      vertex -35 70 0
    endloop
  endfacet
  facet normal -1 0 0
    outer loop
      vertex -35 70 0
      vertex -35 40 30
      vertex -35 70 30
    endloop
  endfacet
  facet normal 0 -1 0
    outer loop
      vertex -21.9 40 4
      vertex -35 40 0
      vertex 35 40 0
    endloop
  endfacet
  facet normal 0 -1 0
    outer loop
      vertex -24.9 40 30
      vertex -24.9 40 4
      vertex -21.9 40 4
    endloop
  endfacet
  facet normal 0 -1 0
    outer loop
      vertex 35 40 15
      vertex 32 40 15
      vertex 35 40 0
    endloop
  endfacet
  facet normal 0 -1 0
    outer loop
      vertex 32 40 15
      vertex 32 40 4
      vertex 35 40 0
    endloop
  endfacet
  facet normal 0 -1 0
    outer loop
      vertex -24.9 40 4
      vertex -35 40 0
      vertex -21.9 40 4
    endloop
  endfacet
  facet normal 0 -1 0
    outer loop
      vertex -32 40 4
      vertex -35 40 0
      vertex -24.9 40 4
    endloop
  endfacet
  facet normal 0 -1 0
    outer loop
      vertex -35 40 30
      vertex -35 40 0
      vertex -32 40 4
    endloop
  endfacet
  facet normal 0 -1 0
    outer loop
      vertex 32 40 4
      vertex -21.9 40 4
      vertex 35 40 0
    endloop
  endfacet
  facet normal 0 -1 0
    outer loop
      vertex -32 40 4
      vertex -32 40 30
      vertex -35 40 30
    endloop
  endfacet
  facet normal 0 -1 0
    outer loop
      vertex -21.9 40 4
      vertex -21.9 40 30
      vertex -24.9 40 30
    endloop
  endfacet
  facet normal 0 0 -1
    outer loop
      vertex -35 40 0
      vertex -35 70 0
      vertex 35 40 0
    endloop
  endfacet
  facet normal 0 0 -1
    outer loop
      vertex 35 40 0
      vertex -35 70 0
      vertex 35 70 0
    endloop
  endfacet
  facet normal 0 1 0
    outer loop
      vertex -35 70 0
      vertex -35 70 30
      vertex -32 70 4
    endloop
  endfacet
  facet normal 0 1 0
    outer loop
      vertex -35 70 0
      vertex -32 70 4
      vertex 35 70 0
    endloop
  endfacet
  facet normal 0 1 0
    outer loop
      vertex 32 70 4
      vertex 35 70 0
      vertex -21.9 70 4
    endloop
  endfacet
  facet normal 0 1 0
    outer loop
      vertex -32 70 4
      vertex -24.9 70 4
      vertex 35 70 0
    endloop
  endfacet
  facet normal 0 1 0
    outer loop
      vertex -21.9 70 4
      vertex -24.9 70 30
      vertex -21.9 70 30
    endloop
  endfacet
  facet normal 0 1 0
    outer loop
      vertex -24.9 70 30
      vertex -21.9 70 4
      vertex -24.9 70 4
    endloop
  endfacet
  facet normal 0 1 0
    outer loop
      vertex -24.9 70 4
      vertex -21.9 70 4
      vertex 35 70 0
    endloop
  endfacet
  facet normal 0 1 0
    outer loop
      vertex 35 70 0
      vertex 32 70 4
      vertex 32 70 15
    endloop
  endfacet
  facet normal 0 1 0
    outer loop
      vertex 35 70 0
      vertex 32 70 15
      vertex 35 70 15
    endloop
  endfacet
  facet normal 0 1 0
    outer loop
      vertex -32 70 4
      vertex -35 70 30
      vertex -32 70 30
    endloop
  endfacet
  facet normal 0 0 1
    outer loop
      vertex -35 70 30
      vertex -35 40 30
      vertex -32 40 30
    endloop
  endfacet
  facet normal 0 0 1
    outer loop
      vertex -32 70 30
      vertex -35 70 30
      vertex -32 40 30
    endloop
  endfacet
  facet normal 1 0 0
    outer loop
      vertex -32 70 4
      vertex -32 70 30
      vertex -32 40 30
    endloop
  endfacet
  facet normal 1 0 0
    outer loop
      vertex -32 40 4
      vertex -32 70 4
      vertex -32 40 30
    endloop
  endfacet
  facet normal 0 0 1
    outer loop
      vertex -24.9 40 4
      vertex -24.9 70 4
      vertex -32 70 4
    endloop
  endfacet
  facet normal 0 0 1
    outer loop
      vertex -32 40 4
      vertex -24.9 40 4
      vertex -32 70 4
    endloop
  endfacet
  facet normal -1 0 0
    outer loop
      vertex -24.9 70 30
      vertex -24.9 70 4
      vertex -24.9 40 30
    endloop
  endfacet
  facet normal -1 0 0
    outer loop
      vertex -24.9 40 30
      vertex -24.9 70 4
      vertex -24.9 40 4
    endloop
  endfacet
  facet normal 0 0 1
    outer loop
      vertex -24.9 70 30
      vertex -24.9 40 30
      vertex -21.9 40 30
    endloop
  endfacet
  facet normal 0 0 1
    outer loop
      vertex -21.9 70 30
      vertex -24.9 70 30
      vertex -21.9 40 30
    endloop
  endfacet
  facet normal 1 0 0
    outer loop
      vertex -21.9 70 4
      vertex -21.9 70 30
      vertex -21.9 40 30
    endloop
  endfacet
  facet normal 1 0 0
    outer loop
      vertex -21.9 40 4
      vertex -21.9 70 4
      vertex -21.9 40 30
    endloop
  endfacet
  facet normal 0 0 1
    outer loop
      vertex 32 40 4
      vertex 32 70 4
      vertex -21.9 70 4
    endloop
  endfacet
  facet normal 0 0 1
    outer loop
      vertex -21.9 40 4
      vertex 32 40 4
      vertex -21.9 70 4
    endloop
  endfacet
  facet normal -1 0 0
    outer loop
      vertex 32 40 4
      vertex 32 40 15
      vertex 32 70 4
    endloop
  endfacet
  facet normal -1 0 0
    outer loop
      vertex 32 70 4
      vertex 32 40 15
      vertex 32 40.0822 15
    endloop
  endfacet
  facet normal -1 0 0
    outer loop
      vertex 32 53.8112 14.6137
      vertex 32 40.0822 15
      vertex 32 53.9367 15
    endloop
  endfacet
  facet normal -1 0 0
    outer loop
      vertex 32 55 13.75
      vertex 32 40.0822 15
      vertex 32 53.8112 14.6137
    endloop
  endfacet
  facet normal -1 0 0
    outer loop
      vertex 32 70 4
      vertex 32 40.0822 15
      vertex 32 55 13.75
    endloop
  endfacet
  facet normal -1 0 0
    outer loop
      vertex 32 70 4
      vertex 32 56.1888 14.6137
      vertex 32 56.0633 15
    endloop
  endfacet
  facet normal -1 0 0
    outer loop
      vertex 32 70 4
      vertex 32 56.0633 15
      vertex 32 69.9178 15
    endloop
  endfacet
  facet normal -1 0 0
    outer loop
      vertex 32 70 4
      vertex 32 69.9178 15
      vertex 32 70 15
    endloop
  endfacet
  facet normal -1 0 0
    outer loop
      vertex 32 56.1888 14.6137
      vertex 32 70 4
      vertex 32 55 13.75
    endloop
  endfacet
  facet normal 0 0 1
    outer loop
      vertex 32 40.0822 15
      vertex 32 40 15
      vertex 35 40 15
    endloop
  endfacet
  facet normal 0 0 1
    outer loop
      vertex 35 40.0822 15
      vertex 32 40.0822 15
      vertex 35 40 15
    endloop
  endfacet
  facet normal 1 0 0
    outer loop
      vertex 35 55 6.66134e-16
      vertex 35 40 0
      vertex 35 70 0
    endloop
  endfacet
  facet normal 1 0 0
    outer loop
      vertex 35 55 6.66134e-16
      vertex 35 51.8813 0.327786
      vertex 35 40 0
    endloop
  endfacet
  facet normal 1 0 0
    outer loop
      vertex 35 70 15
      vertex 35 69.9178 15
      vertex 35 70 0
    endloop
  endfacet
  facet normal 1 0 0
    outer loop
      vertex 35 69.9178 15
      vertex 35 69.9178 13.4321
      vertex 35 70 0
    endloop
  endfacet
  facet normal 1 0 0
    outer loop
      vertex 35 69.9178 13.4321
      vertex 35 69.2658 10.3647
      vertex 35 70 0
    endloop
  endfacet
  facet normal 1 0 0
    outer loop
      vertex 35 69.2658 10.3647
      vertex 35 67.9904 7.5
      vertex 35 70 0
    endloop
  endfacet
  facet normal 1 0 0
    outer loop
      vertex 35 67.9904 7.5
      vertex 35 66.1472 4.96304
      vertex 35 70 0
    endloop
  endfacet
  facet normal 1 0 0
    outer loop
      vertex 35 63.8168 2.86475
      vertex 35 61.101 1.29682
      vertex 35 70 0
    endloop
  endfacet
  facet normal 1 0 0
    outer loop
      vertex 35 61.101 1.29682
      vertex 35 58.1187 0.327786
      vertex 35 70 0
    endloop
  endfacet
  facet normal 1 0 0
    outer loop
      vertex 35 58.1187 0.327786
      vertex 35 55 6.66134e-16
      vertex 35 70 0
    endloop
  endfacet
  facet normal 1 0 0
    outer loop
      vertex 35 46.1832 2.86475
      vertex 35 40 0
      vertex 35 48.8989 1.29682
    endloop
  endfacet
  facet normal 1 0 0
    outer loop
      vertex 35 43.8528 4.96304
      vertex 35 40 0
      vertex 35 46.1832 2.86475
    endloop
  endfacet
  facet normal 1 0 0
    outer loop
      vertex 35 42.0096 7.5
      vertex 35 40 0
      vertex 35 43.8528 4.96304
    endloop
  endfacet
  facet normal 1 0 0
    outer loop
      vertex 35 40.7342 10.3647
      vertex 35 40 0
      vertex 35 42.0096 7.5
    endloop
  endfacet
  facet normal 1 0 0
    outer loop
      vertex 35 40.0822 13.4321
      vertex 35 40 0
      vertex 35 40.7342 10.3647
    endloop
  endfacet
  facet normal 1 0 0
    outer loop
      vertex 35 40 15
      vertex 35 40 0
      vertex 35 40.0822 13.4321
    endloop
  endfacet
  facet normal 1 0 0
    outer loop
      vertex 35 66.1472 4.96304
      vertex 35 63.8168 2.86475
      vertex 35 70 0
    endloop
  endfacet
  facet normal 1 0 0
    outer loop
      vertex 35 51.8813 0.327786
      vertex 35 48.8989 1.29682
      vertex 35 40 0
    endloop
  endfacet
  facet normal 1 0 0
    outer loop
      vertex 35 40.0822 13.4321
      vertex 35 40.0822 15
      vertex 35 40 15
    endloop
  endfacet
  facet normal 0 0 1
    outer loop
      vertex 32 70 15
      vertex 32 69.9178 15
      vertex 35 69.9178 15
    endloop
  endfacet
  facet normal 0 0 1
    outer loop
      vertex 35 70 15
      vertex 32 70 15
      vertex 35 69.9178 15
    endloop
  endfacet
  facet normal -1 0 -2.22045e-16
    outer loop
      vertex 32 55 30
      vertex 32 58.1187 29.6722
      vertex 32 51.8813 29.6722
    endloop
  endfacet
  facet normal -1 0 -2.22045e-16
    outer loop
      vertex 32 51.8813 29.6722
      vertex 32 58.1187 29.6722
      vertex 32 61.101 28.7032
    endloop
  endfacet
  facet normal -1 0 -2.22045e-16
    outer loop
      vertex 32 51.8813 29.6722
      vertex 32 61.101 28.7032
      vertex 32 63.8168 27.1353
    endloop
  endfacet
  facet normal -1 0 -2.22045e-16
    outer loop
      vertex 32 51.8813 29.6722
      vertex 32 63.8168 27.1353
      vertex 32 66.1472 25.037
    endloop
  endfacet
  facet normal -1 0 -2.22045e-16
    outer loop
      vertex 32 51.8813 29.6722
      vertex 32 66.1472 25.037
      vertex 32 67.9904 22.5
    endloop
  endfacet
  facet normal -1 0 -2.22045e-16
    outer loop
      vertex 32 51.8813 29.6722
      vertex 32 67.9904 22.5
      vertex 32 69.2658 19.6353
    endloop
  endfacet
  facet normal -1 0 -2.22045e-16
    outer loop
      vertex 32 51.8813 29.6722
      vertex 32 69.2658 19.6353
      vertex 32 69.9178 16.5679
    endloop
  endfacet
  facet normal -1 0 -2.22045e-16
    outer loop
      vertex 32 51.8813 29.6722
      vertex 32 69.9178 16.5679
      vertex 32 69.9178 15
    endloop
  endfacet
  facet normal -1 0 -2.22045e-16
    outer loop
      vertex 32 51.8813 29.6722
      vertex 32 69.9178 15
      vertex 32 56.0633 15
    endloop
  endfacet
  facet normal -1 0 -2.22045e-16
    outer loop
      vertex 32 51.8813 29.6722
      vertex 32 56.0633 15
      vertex 32 55.7347 16.0113
    endloop
  endfacet
  facet normal -1 0 -2.22045e-16
    outer loop
      vertex 32 51.8813 29.6722
      vertex 32 55.7347 16.0113
      vertex 32 54.2653 16.0113
    endloop
  endfacet
  facet normal -1 0 -2.22045e-16
    outer loop
      vertex 32 54.2653 16.0113
      vertex 32 53.9367 15
      vertex 32 51.8813 29.6722
    endloop
  endfacet
  facet normal -1 0 -2.22045e-16
    outer loop
      vertex 32 51.8813 29.6722
      vertex 32 53.9367 15
      vertex 32 40.0822 15
    endloop
  endfacet
  facet normal -1 0 -2.22045e-16
    outer loop
      vertex 32 51.8813 29.6722
      vertex 32 40.0822 15
      vertex 32 40.0822 16.5679
    endloop
  endfacet
  facet normal -1 0 -2.22045e-16
    outer loop
      vertex 32 51.8813 29.6722
      vertex 32 40.0822 16.5679
      vertex 32 40.7342 19.6353
    endloop
  endfacet
  facet normal -1 0 -2.22045e-16
    outer loop
      vertex 32 51.8813 29.6722
      vertex 32 40.7342 19.6353
      vertex 32 42.0096 22.5
    endloop
  endfacet
  facet normal -1 0 -2.22045e-16
    outer loop
      vertex 32 51.8813 29.6722
      vertex 32 42.0096 22.5
      vertex 32 43.8528 25.037
    endloop
  endfacet
  facet normal -1 0 -2.22045e-16
    outer loop
      vertex 32 51.8813 29.6722
      vertex 32 43.8528 25.037
      vertex 32 46.1832 27.1353
    endloop
  endfacet
  facet normal -1 0 -2.22045e-16
    outer loop
      vertex 32 51.8813 29.6722
      vertex 32 46.1832 27.1353
      vertex 32 48.8989 28.7032
    endloop
  endfacet
  facet normal 0 1 0
    outer loop
      vertex 32 69.9178 16.5679
      vertex 35 69.9178 16.5679
      vertex 32 69.9178 15
    endloop
  endfacet
  facet normal 0 1 0
    outer loop
      vertex 35 69.9178 15
      vertex 35 69.9178 16.5679
      vertex 35 69.9178 13.4321
    endloop
  endfacet
  facet normal 0 1 0
    outer loop
      vertex 32 69.9178 15
      vertex 35 69.9178 16.5679
      vertex 35 69.9178 15
    endloop
  endfacet
  facet normal 6.86156e-17 -0.951057 -0.309017
    outer loop
      vertex 32 56.0633 15
      vertex 32 56.1888 14.6137
      vertex 35 56.1888 14.6137
    endloop
  endfacet
  facet normal 6.86156e-17 -0.951057 -0.309017
    outer loop
      vertex 32 55.7347 16.0113
      vertex 32 56.0633 15
      vertex 35 55.7347 16.0113
    endloop
  endfacet
  facet normal 6.86156e-17 -0.951057 -0.309017
    outer loop
      vertex 35 55.7347 16.0113
      vertex 32 56.0633 15
      vertex 35 56.1888 14.6137
    endloop
  endfacet
  facet normal -1.79638e-16 -0.587785 0.809017
    outer loop
      vertex 35 55 13.75
      vertex 35 56.1888 14.6137
      vertex 32 56.1888 14.6137
    endloop
  endfacet
  facet normal -1.79638e-16 -0.587785 0.809017
    outer loop
      vertex 32 55 13.75
      vertex 35 55 13.75
      vertex 32 56.1888 14.6137
    endloop
  endfacet
  facet normal -1.79638e-16 0.587785 0.809017
    outer loop
      vertex 35 53.8112 14.6137
      vertex 35 55 13.75
      vertex 32 55 13.75
    endloop
  endfacet
  facet normal -1.79638e-16 0.587785 0.809017
    outer loop
      vertex 32 53.8112 14.6137
      vertex 35 53.8112 14.6137
      vertex 32 55 13.75
    endloop
  endfacet
  facet normal 6.86156e-17 0.951057 -0.309017
    outer loop
      vertex 35 53.8112 14.6137
      vertex 32 53.8112 14.6137
      vertex 35 54.2653 16.0113
    endloop
  endfacet
  facet normal 6.86156e-17 0.951057 -0.309017
    outer loop
      vertex 35 54.2653 16.0113
      vertex 32 53.8112 14.6137
      vertex 32 53.9367 15
    endloop
  endfacet
  facet normal 6.86156e-17 0.951057 -0.309017
    outer loop
      vertex 35 54.2653 16.0113
      vertex 32 53.9367 15
      vertex 32 54.2653 16.0113
    endloop
  endfacet
  facet normal 0 -1 0
    outer loop
      vertex 35 40.0822 16.5679
      vertex 32 40.0822 16.5679
      vertex 32 40.0822 15
    endloop
  endfacet
  facet normal 0 -1 0
    outer loop
      vertex 35 40.0822 13.4321
      vertex 35 40.0822 16.5679
      vertex 35 40.0822 15
    endloop
  endfacet
  facet normal 0 -1 0
    outer loop
      vertex 35 40.0822 15
      vertex 35 40.0822 16.5679
      vertex 32 40.0822 15
    endloop
  endfacet
  facet normal -2.20828e-16 -0.104528 0.994522
    outer loop
      vertex 35 55 30
      vertex 32 55 30
      vertex 32 51.8813 29.6722
    endloop
  endfacet
  facet normal -2.20828e-16 -0.104528 0.994522
    outer loop
      vertex 35 51.8813 29.6722
      vertex 35 55 30
      vertex 32 51.8813 29.6722
    endloop
  endfacet
  facet normal -2.11177e-16 -0.309017 0.951057
    outer loop
      vertex 35 51.8813 29.6722
      vertex 32 51.8813 29.6722
      vertex 32 48.8989 28.7032
    endloop
  endfacet
  facet normal -2.11177e-16 -0.309017 0.951057
    outer loop
      vertex 35 48.8989 28.7032
      vertex 35 51.8813 29.6722
      vertex 32 48.8989 28.7032
    endloop
  endfacet
  facet normal -1.92296e-16 -0.5 0.866025
    outer loop
      vertex 35 48.8989 28.7032
      vertex 32 48.8989 28.7032
      vertex 32 46.1832 27.1353
    endloop
  endfacet
  facet normal -1.92296e-16 -0.5 0.866025
    outer loop
      vertex 35 46.1832 27.1353
      vertex 35 48.8989 28.7032
      vertex 32 46.1832 27.1353
    endloop
  endfacet
  facet normal -1.65011e-16 -0.669131 0.743145
    outer loop
      vertex 35 46.1832 27.1353
      vertex 32 46.1832 27.1353
      vertex 32 43.8528 25.037
    endloop
  endfacet
  facet normal -1.65011e-16 -0.669131 0.743145
    outer loop
      vertex 35 43.8528 25.037
      vertex 35 46.1832 27.1353
      vertex 32 43.8528 25.037
    endloop
  endfacet
  facet normal -1.30515e-16 -0.809017 0.587785
    outer loop
      vertex 35 43.8528 25.037
      vertex 32 43.8528 25.037
      vertex 32 42.0096 22.5
    endloop
  endfacet
  facet normal -1.30515e-16 -0.809017 0.587785
    outer loop
      vertex 35 42.0096 22.5
      vertex 35 43.8528 25.037
      vertex 32 42.0096 22.5
    endloop
  endfacet
  facet normal -9.03137e-17 -0.913545 0.406737
    outer loop
      vertex 35 42.0096 22.5
      vertex 32 42.0096 22.5
      vertex 32 40.7342 19.6353
    endloop
  endfacet
  facet normal -9.03137e-17 -0.913545 0.406737
    outer loop
      vertex 35 40.7342 19.6353
      vertex 35 42.0096 22.5
      vertex 32 40.7342 19.6353
    endloop
  endfacet
  facet normal -4.61656e-17 -0.978148 0.207911
    outer loop
      vertex 35 40.7342 19.6353
      vertex 32 40.7342 19.6353
      vertex 32 40.0822 16.5679
    endloop
  endfacet
  facet normal -4.61656e-17 -0.978148 0.207911
    outer loop
      vertex 35 40.0822 16.5679
      vertex 35 40.7342 19.6353
      vertex 32 40.0822 16.5679
    endloop
  endfacet
  facet normal 2.22045e-16 0 -1
    outer loop
      vertex 35 55.7347 16.0113
      vertex 35 54.2653 16.0113
      vertex 32 55.7347 16.0113
    endloop
  endfacet
  facet normal 2.22045e-16 0 -1
    outer loop
      vertex 32 55.7347 16.0113
      vertex 35 54.2653 16.0113
      vertex 32 54.2653 16.0113
    endloop
  endfacet
  facet normal -4.61656e-17 0.978148 0.207911
    outer loop
      vertex 32 69.2658 19.6353
      vertex 35 69.2658 19.6353
      vertex 32 69.9178 16.5679
    endloop
  endfacet
  facet normal -4.61656e-17 0.978148 0.207911
    outer loop
      vertex 32 69.9178 16.5679
      vertex 35 69.2658 19.6353
      vertex 35 69.9178 16.5679
    endloop
  endfacet
  facet normal -9.03137e-17 0.913545 0.406737
    outer loop
      vertex 32 67.9904 22.5
      vertex 35 67.9904 22.5
      vertex 32 69.2658 19.6353
    endloop
  endfacet
  facet normal -9.03137e-17 0.913545 0.406737
    outer loop
      vertex 32 69.2658 19.6353
      vertex 35 67.9904 22.5
      vertex 35 69.2658 19.6353
    endloop
  endfacet
  facet normal -1.30515e-16 0.809017 0.587785
    outer loop
      vertex 32 66.1472 25.037
      vertex 35 66.1472 25.037
      vertex 32 67.9904 22.5
    endloop
  endfacet
  facet normal -1.30515e-16 0.809017 0.587785
    outer loop
      vertex 32 67.9904 22.5
      vertex 35 66.1472 25.037
      vertex 35 67.9904 22.5
    endloop
  endfacet
  facet normal -1.65011e-16 0.669131 0.743145
    outer loop
      vertex 32 66.1472 25.037
      vertex 32 63.8168 27.1353
      vertex 35 63.8168 27.1353
    endloop
  endfacet
  facet normal -1.65011e-16 0.669131 0.743145
    outer loop
      vertex 35 66.1472 25.037
      vertex 32 66.1472 25.037
      vertex 35 63.8168 27.1353
    endloop
  endfacet
  facet normal -1.92296e-16 0.5 0.866025
    outer loop
      vertex 32 63.8168 27.1353
      vertex 32 61.101 28.7032
      vertex 35 61.101 28.7032
    endloop
  endfacet
  facet normal -1.92296e-16 0.5 0.866025
    outer loop
      vertex 35 63.8168 27.1353
      vertex 32 63.8168 27.1353
      vertex 35 61.101 28.7032
    endloop
  endfacet
  facet normal -2.11177e-16 0.309017 0.951057
    outer loop
      vertex 32 61.101 28.7032
      vertex 32 58.1187 29.6722
      vertex 35 58.1187 29.6722
    endloop
  endfacet
  facet normal -2.11177e-16 0.309017 0.951057
    outer loop
      vertex 35 61.101 28.7032
      vertex 32 61.101 28.7032
      vertex 35 58.1187 29.6722
    endloop
  endfacet
  facet normal -2.20828e-16 0.104528 0.994522
    outer loop
      vertex 32 58.1187 29.6722
      vertex 32 55 30
      vertex 35 55 30
    endloop
  endfacet
  facet normal -2.20828e-16 0.104528 0.994522
    outer loop
      vertex 35 58.1187 29.6722
      vertex 32 58.1187 29.6722
      vertex 35 55 30
    endloop
  endfacet
  facet normal 1 0 2.22045e-16
    outer loop
      vertex 35 58.1187 29.6722
      vertex 35 55 30
      vertex 35 51.8813 29.6722
    endloop
  endfacet
  facet normal 1 0 2.22045e-16
    outer loop
      vertex 35 46.1832 27.1353
      vertex 35 58.1187 29.6722
      vertex 35 48.8989 28.7032
    endloop
  endfacet
  facet normal 1 0 2.22045e-16
    outer loop
      vertex 35 48.8989 28.7032
      vertex 35 58.1187 29.6722
      vertex 35 51.8813 29.6722
    endloop
  endfacet
  facet normal 1 0 2.22045e-16
    outer loop
      vertex 35 43.8528 25.037
      vertex 35 58.1187 29.6722
      vertex 35 46.1832 27.1353
    endloop
  endfacet
  facet normal 1 0 2.22045e-16
    outer loop
      vertex 35 42.0096 22.5
      vertex 35 58.1187 29.6722
      vertex 35 43.8528 25.037
    endloop
  endfacet
  facet normal 1 0 2.22045e-16
    outer loop
      vertex 35 40.7342 19.6353
      vertex 35 58.1187 29.6722
      vertex 35 42.0096 22.5
    endloop
  endfacet
  facet normal 1 0 2.22045e-16
    outer loop
      vertex 35 40.0822 16.5679
      vertex 35 58.1187 29.6722
      vertex 35 40.7342 19.6353
    endloop
  endfacet
  facet normal 1 0 2.22045e-16
    outer loop
      vertex 35 40.0822 13.4321
      vertex 35 58.1187 29.6722
      vertex 35 40.0822 16.5679
    endloop
  endfacet
  facet normal 1 0 2.22045e-16
    outer loop
      vertex 35 40.7342 10.3647
      vertex 35 58.1187 29.6722
      vertex 35 40.0822 13.4321
    endloop
  endfacet
  facet normal 1 0 2.22045e-16
    outer loop
      vertex 35 42.0096 7.5
      vertex 35 58.1187 29.6722
      vertex 35 40.7342 10.3647
    endloop
  endfacet
  facet normal 1 0 2.22045e-16
    outer loop
      vertex 35 43.8528 4.96304
      vertex 35 58.1187 29.6722
      vertex 35 42.0096 7.5
    endloop
  endfacet
  facet normal 1 0 2.22045e-16
    outer loop
      vertex 35 46.1832 2.86475
      vertex 35 58.1187 29.6722
      vertex 35 43.8528 4.96304
    endloop
  endfacet
  facet normal 1 0 2.22045e-16
    outer loop
      vertex 35 48.8989 1.29682
      vertex 35 58.1187 29.6722
      vertex 35 46.1832 2.86475
    endloop
  endfacet
  facet normal 1 0 2.22045e-16
    outer loop
      vertex 35 54.2653 16.0113
      vertex 35 58.1187 29.6722
      vertex 35 48.8989 1.29682
    endloop
  endfacet
  facet normal 1 0 2.22045e-16
    outer loop
      vertex 35 56.1888 14.6137
      vertex 35 51.8813 0.327786
      vertex 35 55 6.66134e-16
    endloop
  endfacet
  facet normal 1 0 2.22045e-16
    outer loop
      vertex 35 58.1187 0.327786
      vertex 35 58.1187 29.6722
      vertex 35 55 6.66134e-16
    endloop
  endfacet
  facet normal 1 0 2.22045e-16
    outer loop
      vertex 35 61.101 1.29682
      vertex 35 58.1187 29.6722
      vertex 35 58.1187 0.327786
    endloop
  endfacet
  facet normal 1 0 2.22045e-16
    outer loop
      vertex 35 63.8168 2.86475
      vertex 35 58.1187 29.6722
      vertex 35 61.101 1.29682
    endloop
  endfacet
  facet normal 1 0 2.22045e-16
    outer loop
      vertex 35 66.1472 4.96304
      vertex 35 58.1187 29.6722
      vertex 35 63.8168 2.86475
    endloop
  endfacet
  facet normal 1 0 2.22045e-16
    outer loop
      vertex 35 67.9904 7.5
      vertex 35 58.1187 29.6722
      vertex 35 66.1472 4.96304
    endloop
  endfacet
  facet normal 1 0 2.22045e-16
    outer loop
      vertex 35 69.2658 10.3647
      vertex 35 58.1187 29.6722
      vertex 35 67.9904 7.5
    endloop
  endfacet
  facet normal 1 0 2.22045e-16
    outer loop
      vertex 35 69.9178 13.4321
      vertex 35 58.1187 29.6722
      vertex 35 69.2658 10.3647
    endloop
  endfacet
  facet normal 1 0 2.22045e-16
    outer loop
      vertex 35 69.9178 16.5679
      vertex 35 58.1187 29.6722
      vertex 35 69.9178 13.4321
    endloop
  endfacet
  facet normal 1 0 2.22045e-16
    outer loop
      vertex 35 69.2658 19.6353
      vertex 35 58.1187 29.6722
      vertex 35 69.9178 16.5679
    endloop
  endfacet
  facet normal 1 0 2.22045e-16
    outer loop
      vertex 35 67.9904 22.5
      vertex 35 58.1187 29.6722
      vertex 35 69.2658 19.6353
    endloop
  endfacet
  facet normal 1 0 2.22045e-16
    outer loop
      vertex 35 66.1472 25.037
      vertex 35 58.1187 29.6722
      vertex 35 67.9904 22.5
    endloop
  endfacet
  facet normal 1 0 2.22045e-16
    outer loop
      vertex 35 63.8168 27.1353
      vertex 35 58.1187 29.6722
      vertex 35 66.1472 25.037
    endloop
  endfacet
  facet normal 1 0 2.22045e-16
    outer loop
      vertex 35 61.101 28.7032
      vertex 35 58.1187 29.6722
      vertex 35 63.8168 27.1353
    endloop
  endfacet
  facet normal 1 0 2.22045e-16
    outer loop
      vertex 35 53.8112 14.6137
      vertex 35 54.2653 16.0113
      vertex 35 48.8989 1.29682
    endloop
  endfacet
  facet normal 1 0 2.22045e-16
    outer loop
      vertex 35 56.1888 14.6137
      vertex 35 55 13.75
      vertex 35 51.8813 0.327786
    endloop
  endfacet
  facet normal 1 0 2.22045e-16
    outer loop
      vertex 35 55 13.75
      vertex 35 53.8112 14.6137
      vertex 35 51.8813 0.327786
    endloop
  endfacet
  facet normal 1 0 2.22045e-16
    outer loop
      vertex 35 56.1888 14.6137
      vertex 35 58.1187 29.6722
      vertex 35 55.7347 16.0113
    endloop
  endfacet
  facet normal 1 0 2.22045e-16
    outer loop
      vertex 35 55 6.66134e-16
      vertex 35 58.1187 29.6722
      vertex 35 56.1888 14.6137
    endloop
  endfacet
  facet normal 1 0 2.22045e-16
    outer loop
      vertex 35 51.8813 0.327786
      vertex 35 53.8112 14.6137
      vertex 35 48.8989 1.29682
    endloop
  endfacet
  facet normal 1 0 2.22045e-16
    outer loop
      vertex 35 54.2653 16.0113
      vertex 35 55.7347 16.0113
      vertex 35 58.1187 29.6722
    endloop
  endfacet
  facet normal -1 0 0
    outer loop
      vertex -15 -15 0
      vertex -15 -15 50
      vertex -15 15 0
    endloop
  endfacet
  facet normal -1 0 0
    outer loop
      vertex -15 15 0
      vertex -15 -15 50
      vertex -15 15 50
    endloop
  endfacet
  facet normal 0 -1 0
    outer loop
      vertex -12 -15 3
      vertex -15 -15 0
      vertex 0 -15 0
    endloop
  endfacet
  facet normal 0 -1 0
    outer loop
      vertex -12 -15 40
      vertex -15 -15 50
      vertex -12 -15 3
    endloop
  endfacet
  facet normal 0 -1 0
    outer loop
      vertex -15 -15 50
      vertex -15 -15 0
      vertex -12 -15 3
    endloop
  endfacet
  facet normal 0 -1 0
    outer loop
      vertex -12 -15 40
      vertex 13.0866 -15 40.3806
      vertex -15 -15 50
    endloop
  endfacet
  facet normal 0 -1 0
    outer loop
      vertex 13.0866 -15 40.3806
      vertex 11.4645 -15 41.4645
      vertex -15 -15 50
    endloop
  endfacet
  facet normal 0 -1 0
    outer loop
      vertex 10.3806 -15 43.0866
      vertex -15 -15 50
      vertex 11.4645 -15 41.4645
    endloop
  endfacet
  facet normal 0 -1 0
    outer loop
      vertex 10 -15 45
      vertex -15 -15 50
      vertex 10.3806 -15 43.0866
    endloop
  endfacet
  facet normal 0 -1 0
    outer loop
      vertex 13.8674 -15 45
      vertex -15 -15 50
      vertex 10 -15 45
    endloop
  endfacet
  facet normal 0 -1 0
    outer loop
      vertex 13.8674 -15 45.8229
      vertex -15 -15 50
      vertex 13.8674 -15 45
    endloop
  endfacet
  facet normal 0 -1 0
    outer loop
      vertex 15 -15 46.1909
      vertex -15 -15 50
      vertex 13.8674 -15 45.8229
    endloop
  endfacet
  facet normal 0 -1 0
    outer loop
      vertex 15 -15 50
      vertex -15 -15 50
      vertex 15 -15 46.1909
    endloop
  endfacet
  facet normal 0 -1 0
    outer loop
      vertex 0 -15 3
      vertex -12 -15 3
      vertex 0 -15 0
    endloop
  endfacet
  facet normal 0 -1 0
    outer loop
      vertex -12 -15 40
      vertex 15 -15 40
      vertex 13.0866 -15 40.3806
    endloop
  endfacet
  facet normal 0 0 -1
    outer loop
      vertex -15 -15 0
      vertex -15 15 0
      vertex 0 -15 0
    endloop
  endfacet
  facet normal 0 0 -1
    outer loop
      vertex 0 14.9178 0
      vertex -15 15 0
      vertex 0 15 0
    endloop
  endfacet
  facet normal 0 0 -1
    outer loop
      vertex 0 -15 0
      vertex -15 15 0
      vertex 0 -14.9178 0
    endloop
  endfacet
  facet normal 0 0 -1
    outer loop
      vertex -1.01127 0.734732 0
      vertex 0 14.9178 0
      vertex 0.386271 1.18882 0
    endloop
  endfacet
  facet normal 0 0 -1
    outer loop
      vertex 1.25 0 0
      vertex 1.56793 14.9178 0
      vertex 4.63525 14.2658 0
    endloop
  endfacet
  facet normal 0 0 -1
    outer loop
      vertex -1.01127 -0.734732 0
      vertex 0 -14.9178 0
      vertex -15 15 0
    endloop
  endfacet
  facet normal 0 0 -1
    outer loop
      vertex 0.386271 -1.18882 0
      vertex 0 -14.9178 0
      vertex -1.01127 -0.734732 0
    endloop
  endfacet
  facet normal 0 0 -1
    outer loop
      vertex 0 14.9178 0
      vertex -1.01127 0.734732 0
      vertex -15 15 0
    endloop
  endfacet
  facet normal 0 0 -1
    outer loop
      vertex -1.01127 0.734732 0
      vertex -1.01127 -0.734732 0
      vertex -15 15 0
    endloop
  endfacet
  facet normal 0 0 -1
    outer loop
      vertex 1.25 0 0
      vertex 0 -14.9178 0
      vertex 0.386271 -1.18882 0
    endloop
  endfacet
  facet normal 0 0 -1
    outer loop
      vertex 0 14.9178 0
      vertex 1.56793 14.9178 0
      vertex 0.386271 1.18882 0
    endloop
  endfacet
  facet normal 0 0 -1
    outer loop
      vertex 0.386271 1.18882 0
      vertex 1.56793 14.9178 0
      vertex 1.25 0 0
    endloop
  endfacet
  facet normal 0 0 -1
    outer loop
      vertex 0 -14.9178 0
      vertex 1.25 0 0
      vertex 4.63525 14.2658 0
    endloop
  endfacet
  facet normal 0 0 -1
    outer loop
      vertex 0 -14.9178 0
      vertex 4.63525 14.2658 0
      vertex 7.5 12.9904 0
    endloop
  endfacet
  facet normal 0 0 -1
    outer loop
      vertex 0 -14.9178 0
      vertex 7.5 12.9904 0
      vertex 10.037 11.1472 0
    endloop
  endfacet
  facet normal 0 0 -1
    outer loop
      vertex 0 -14.9178 0
      vertex 10.037 11.1472 0
      vertex 12.1353 8.81678 0
    endloop
  endfacet
  facet normal 0 0 -1
    outer loop
      vertex 0 -14.9178 0
      vertex 12.1353 8.81678 0
      vertex 13.7032 6.10105 0
    endloop
  endfacet
  facet normal 0 0 -1
    outer loop
      vertex 0 -14.9178 0
      vertex 13.7032 6.10105 0
      vertex 14.6722 3.11867 0
    endloop
  endfacet
  facet normal 0 0 -1
    outer loop
      vertex 0 -14.9178 0
      vertex 14.6722 3.11867 0
      vertex 15 0 0
    endloop
  endfacet
  facet normal 0 0 -1
    outer loop
      vertex 0 -14.9178 0
      vertex 15 0 0
      vertex 14.6722 -3.11867 0
    endloop
  endfacet
  facet normal 0 0 -1
    outer loop
      vertex 0 -14.9178 0
      vertex 14.6722 -3.11867 0
      vertex 13.7032 -6.10105 0
    endloop
  endfacet
  facet normal 0 0 -1
    outer loop
      vertex 0 -14.9178 0
      vertex 13.7032 -6.10105 0
      vertex 12.1353 -8.81678 0
    endloop
  endfacet
  facet normal 0 0 -1
    outer loop
      vertex 0 -14.9178 0
      vertex 12.1353 -8.81678 0
      vertex 10.037 -11.1472 0
    endloop
  endfacet
  facet normal 0 0 -1
    outer loop
      vertex 0 -14.9178 0
      vertex 10.037 -11.1472 0
      vertex 7.5 -12.9904 0
    endloop
  endfacet
  facet normal 0 0 -1
    outer loop
      vertex 0 -14.9178 0
      vertex 7.5 -12.9904 0
      vertex 4.63525 -14.2658 0
    endloop
  endfacet
  facet normal 0 0 -1
    outer loop
      vertex 0 -14.9178 0
      vertex 4.63525 -14.2658 0
      vertex 1.56793 -14.9178 0
    endloop
  endfacet
  facet normal 0 1 0
    outer loop
      vertex 0 15 3
      vertex 0 15 0
      vertex -12 15 3
    endloop
  endfacet
  facet normal 0 1 0
    outer loop
      vertex -15 15 0
      vertex -15 15 50
      vertex -12 15 3
    endloop
  endfacet
  facet normal 0 1 0
    outer loop
      vertex -15 15 0
      vertex -12 15 3
      vertex 0 15 0
    endloop
  endfacet
  facet normal 0 1 0
    outer loop
      vertex -12 15 3
      vertex -15 15 50
      vertex -12 15 50
    endloop
  endfacet
  facet normal 0 0 1
    outer loop
      vertex -12 -12 50
      vertex -12 15 50
      vertex -15 15 50
    endloop
  endfacet
  facet normal 0 0 1
    outer loop
      vertex -12 -12 50
      vertex -15 -15 50
      vertex 15 -15 50
    endloop
  endfacet
  facet normal 0 0 1
    outer loop
      vertex -15 15 50
      vertex -15 -15 50
      vertex -12 -12 50
    endloop
  endfacet
  facet normal 0 0 1
    outer loop
      vertex 15 -12 50
      vertex -12 -12 50
      vertex 15 -15 50
    endloop
  endfacet
  facet normal 0.309017 -2.11177e-16 -0.951056
    outer loop
      vertex 15.4326 -12 46.3315
      vertex 15.4326 -15 46.3315
      vertex 13.8674 -12 45.8229
    endloop
  endfacet
  facet normal 0.309017 -2.11177e-16 -0.951056
    outer loop
      vertex 13.8674 -12 45.8229
      vertex 15.4326 -15 46.3315
      vertex 15 -15 46.1909
    endloop
  endfacet
  facet normal 0.309017 -2.11177e-16 -0.951056
    outer loop
      vertex 13.8674 -12 45.8229
      vertex 15 -15 46.1909
      vertex 13.8674 -15 45.8229
    endloop
  endfacet
  facet normal 1 0 0
    outer loop
      vertex 13.8674 -12 45
      vertex 13.8674 -12 45.8229
      vertex 13.8674 -15 45.8229
    endloop
  endfacet
  facet normal 1 0 0
    outer loop
      vertex 13.8674 -12 44.1771
      vertex 13.8674 -12 45
      vertex 13.8674 -15 45.8229
    endloop
  endfacet
  facet normal 1 0 0
    outer loop
      vertex 13.8674 -15 45
      vertex 13.8674 -12 44.1771
      vertex 13.8674 -15 45.8229
    endloop
  endfacet
  facet normal 1 0 0
    outer loop
      vertex 13.8674 -15 44.1771
      vertex 13.8674 -12 44.1771
      vertex 13.8674 -15 45
    endloop
  endfacet
  facet normal 0 -1 2.22045e-16
    outer loop
      vertex 13.8674 -15 45
      vertex 10 -15 45
      vertex 10.3806 -15 43.0866
    endloop
  endfacet
  facet normal 0 -1 2.22045e-16
    outer loop
      vertex 13.0866 -15 40.3806
      vertex 13.8674 -15 45
      vertex 11.4645 -15 41.4645
    endloop
  endfacet
  facet normal 0 -1 2.22045e-16
    outer loop
      vertex 11.4645 -15 41.4645
      vertex 13.8674 -15 45
      vertex 10.3806 -15 43.0866
    endloop
  endfacet
  facet normal 0 -1 2.22045e-16
    outer loop
      vertex 16.4 -15 45
      vertex 18.5355 -15 41.4645
      vertex 19.6194 -15 43.0866
    endloop
  endfacet
  facet normal 0 -1 2.22045e-16
    outer loop
      vertex 13.8674 -15 44.1771
      vertex 13.8674 -15 45
      vertex 13.0866 -15 40.3806
    endloop
  endfacet
  facet normal 0 -1 2.22045e-16
    outer loop
      vertex 15.4326 -15 43.6685
      vertex 15 -15 40
      vertex 16.9134 -15 40.3806
    endloop
  endfacet
  facet normal 0 -1 2.22045e-16
    outer loop
      vertex 20 -15 45
      vertex 16.4 -15 45
      vertex 19.6194 -15 43.0866
    endloop
  endfacet
  facet normal 0 -1 2.22045e-16
    outer loop
      vertex 15.4326 -15 43.6685
      vertex 13.8674 -15 44.1771
      vertex 15 -15 40
    endloop
  endfacet
  facet normal 0 -1 2.22045e-16
    outer loop
      vertex 16.4 -15 45
      vertex 15.4326 -15 43.6685
      vertex 18.5355 -15 41.4645
    endloop
  endfacet
  facet normal 0 -1 2.22045e-16
    outer loop
      vertex 15 -15 50
      vertex 18.5355 -15 48.5355
      vertex 16.9134 -15 49.6194
    endloop
  endfacet
  facet normal 0 -1 2.22045e-16
    outer loop
      vertex 18.5355 -15 48.5355
      vertex 15.4326 -15 46.3315
      vertex 19.6194 -15 46.9134
    endloop
  endfacet
  facet normal 0 -1 2.22045e-16
    outer loop
      vertex 18.5355 -15 48.5355
      vertex 15 -15 46.1909
      vertex 15.4326 -15 46.3315
    endloop
  endfacet
  facet normal 0 -1 2.22045e-16
    outer loop
      vertex 19.6194 -15 46.9134
      vertex 16.4 -15 45
      vertex 20 -15 45
    endloop
  endfacet
  facet normal 0 -1 2.22045e-16
    outer loop
      vertex 18.5355 -15 41.4645
      vertex 15.4326 -15 43.6685
      vertex 16.9134 -15 40.3806
    endloop
  endfacet
  facet normal 0 -1 2.22045e-16
    outer loop
      vertex 15 -15 40
      vertex 13.8674 -15 44.1771
      vertex 13.0866 -15 40.3806
    endloop
  endfacet
  facet normal 0 -1 2.22045e-16
    outer loop
      vertex 15 -15 50
      vertex 15 -15 46.1909
      vertex 18.5355 -15 48.5355
    endloop
  endfacet
  facet normal 0 -1 2.22045e-16
    outer loop
      vertex 15.4326 -15 46.3315
      vertex 16.4 -15 45
      vertex 19.6194 -15 46.9134
    endloop
  endfacet
  facet normal 0.19509 -2.17778e-16 -0.980785
    outer loop
      vertex 16.9134 -15 40.3806
      vertex 15 -15 40
      vertex 15 -12 40
    endloop
  endfacet
  facet normal 0.19509 -2.17778e-16 -0.980785
    outer loop
      vertex 16.9134 -15 40.3806
      vertex 15 -12 40
      vertex 16.9134 -12 40.3806
    endloop
  endfacet
  facet normal 0 0 -1
    outer loop
      vertex -12 -15 40
      vertex -12 -12 40
      vertex 15 -15 40
    endloop
  endfacet
  facet normal 0 0 -1
    outer loop
      vertex 15 -15 40
      vertex -12 -12 40
      vertex 15 -12 40
    endloop
  endfacet
  facet normal 1 0 0
    outer loop
      vertex -12 -15 40
      vertex -12 -15 3
      vertex -12 15 3
    endloop
  endfacet
  facet normal 1 0 0
    outer loop
      vertex -12 -12 40
      vertex -12 -15 40
      vertex -12 15 3
    endloop
  endfacet
  facet normal 1 0 0
    outer loop
      vertex -12 15 50
      vertex -12 -12 40
      vertex -12 15 3
    endloop
  endfacet
  facet normal 1 0 0
    outer loop
      vertex -12 -12 50
      vertex -12 -12 40
      vertex -12 15 50
    endloop
  endfacet
  facet normal 0 0 1
    outer loop
      vertex -12 15 3
      vertex -12 -15 3
      vertex 0 -15 3
    endloop
  endfacet
  facet normal 0 0 1
    outer loop
      vertex 1.56793 -14.9178 3
      vertex -12 15 3
      vertex 0 -14.9178 3
    endloop
  endfacet
  facet normal 0 0 1
    outer loop
      vertex 0 -14.9178 3
      vertex -12 15 3
      vertex 0 -15 3
    endloop
  endfacet
  facet normal 0 0 1
    outer loop
      vertex 4.63525 -14.2658 3
      vertex -12 15 3
      vertex 1.56793 -14.9178 3
    endloop
  endfacet
  facet normal 0 0 1
    outer loop
      vertex 7.5 -12.9904 3
      vertex -12 15 3
      vertex 4.63525 -14.2658 3
    endloop
  endfacet
  facet normal 0 0 1
    outer loop
      vertex -1.01127 -0.734732 3
      vertex -12 15 3
      vertex 7.5 -12.9904 3
    endloop
  endfacet
  facet normal 0 0 1
    outer loop
      vertex 1.25 0 3
      vertex 0.386271 -1.18882 3
      vertex 10.037 -11.1472 3
    endloop
  endfacet
  facet normal 0 0 1
    outer loop
      vertex 13.7032 -6.10105 3
      vertex -12 15 3
      vertex 12.1353 -8.81678 3
    endloop
  endfacet
  facet normal 0 0 1
    outer loop
      vertex 14.6722 -3.11867 3
      vertex -12 15 3
      vertex 13.7032 -6.10105 3
    endloop
  endfacet
  facet normal 0 0 1
    outer loop
      vertex 15 0 3
      vertex -12 15 3
      vertex 14.6722 -3.11867 3
    endloop
  endfacet
  facet normal 0 0 1
    outer loop
      vertex 14.6722 3.11867 3
      vertex -12 15 3
      vertex 15 0 3
    endloop
  endfacet
  facet normal 0 0 1
    outer loop
      vertex 13.7032 6.10105 3
      vertex -12 15 3
      vertex 14.6722 3.11867 3
    endloop
  endfacet
  facet normal 0 0 1
    outer loop
      vertex 12.1353 8.81678 3
      vertex -12 15 3
      vertex 13.7032 6.10105 3
    endloop
  endfacet
  facet normal 0 0 1
    outer loop
      vertex 10.037 11.1472 3
      vertex -12 15 3
      vertex 12.1353 8.81678 3
    endloop
  endfacet
  facet normal 0 0 1
    outer loop
      vertex 7.5 12.9904 3
      vertex -12 15 3
      vertex 10.037 11.1472 3
    endloop
  endfacet
  facet normal 0 0 1
    outer loop
      vertex 4.63525 14.2658 3
      vertex -12 15 3
      vertex 7.5 12.9904 3
    endloop
  endfacet
  facet normal 0 0 1
    outer loop
      vertex 0 14.9178 3
      vertex -12 15 3
      vertex 4.63525 14.2658 3
    endloop
  endfacet
  facet normal 0 0 1
    outer loop
      vertex 1.56793 14.9178 3
      vertex 0 14.9178 3
      vertex 4.63525 14.2658 3
    endloop
  endfacet
  facet normal 0 0 1
    outer loop
      vertex 10.037 -11.1472 3
      vertex -1.01127 -0.734732 3
      vertex 7.5 -12.9904 3
    endloop
  endfacet
  facet normal 0 0 1
    outer loop
      vertex -1.01127 0.734732 3
      vertex -12 15 3
      vertex -1.01127 -0.734732 3
    endloop
  endfacet
  facet normal 0 0 1
    outer loop
      vertex 12.1353 -8.81678 3
      vertex 0.386271 1.18882 3
      vertex 10.037 -11.1472 3
    endloop
  endfacet
  facet normal 0 0 1
    outer loop
      vertex 12.1353 -8.81678 3
      vertex -12 15 3
      vertex 0.386271 1.18882 3
    endloop
  endfacet
  facet normal 0 0 1
    outer loop
      vertex 0.386271 1.18882 3
      vertex 1.25 0 3
      vertex 10.037 -11.1472 3
    endloop
  endfacet
  facet normal 0 0 1
    outer loop
      vertex 10.037 -11.1472 3
      vertex 0.386271 -1.18882 3
      vertex -1.01127 -0.734732 3
    endloop
  endfacet
  facet normal 0 0 1
    outer loop
      vertex 0 14.9178 3
      vertex 0 15 3
      vertex -12 15 3
    endloop
  endfacet
  facet normal 0 0 1
    outer loop
      vertex -1.01127 0.734732 3
      vertex 0.386271 1.18882 3
      vertex -12 15 3
    endloop
  endfacet
  facet normal 1 0 0
    outer loop
      vertex 0 -15 3
      vertex 0 -15 0
      vertex 0 -14.9178 0
    endloop
  endfacet
  facet normal 1 0 0
    outer loop
      vertex 0 -14.9178 3
      vertex 0 -15 3
      vertex 0 -14.9178 0
    endloop
  endfacet
  facet normal 0 -1 0
    outer loop
      vertex 0 -14.9178 3
      vertex 0 -14.9178 0
      vertex 1.56793 -14.9178 0
    endloop
  endfacet
  facet normal 0 -1 0
    outer loop
      vertex 1.56793 -14.9178 3
      vertex 0 -14.9178 3
      vertex 1.56793 -14.9178 0
    endloop
  endfacet
  facet normal 0.207911 -0.978148 0
    outer loop
      vertex 1.56793 -14.9178 3
      vertex 1.56793 -14.9178 0
      vertex 4.63525 -14.2658 0
    endloop
  endfacet
  facet normal 0.207911 -0.978148 0
    outer loop
      vertex 4.63525 -14.2658 3
      vertex 1.56793 -14.9178 3
      vertex 4.63525 -14.2658 0
    endloop
  endfacet
  facet normal 0.406737 -0.913545 0
    outer loop
      vertex 4.63525 -14.2658 3
      vertex 4.63525 -14.2658 0
      vertex 7.5 -12.9904 0
    endloop
  endfacet
  facet normal 0.406737 -0.913545 0
    outer loop
      vertex 7.5 -12.9904 3
      vertex 4.63525 -14.2658 3
      vertex 7.5 -12.9904 0
    endloop
  endfacet
  facet normal 0.587785 -0.809017 0
    outer loop
      vertex 7.5 -12.9904 3
      vertex 7.5 -12.9904 0
      vertex 10.037 -11.1472 0
    endloop
  endfacet
  facet normal 0.587785 -0.809017 0
    outer loop
      vertex 10.037 -11.1472 3
      vertex 7.5 -12.9904 3
      vertex 10.037 -11.1472 0
    endloop
  endfacet
  facet normal 0.743145 -0.669131 0
    outer loop
      vertex 10.037 -11.1472 3
      vertex 10.037 -11.1472 0
      vertex 12.1353 -8.81678 0
    endloop
  endfacet
  facet normal 0.743145 -0.669131 0
    outer loop
      vertex 12.1353 -8.81678 3
      vertex 10.037 -11.1472 3
      vertex 12.1353 -8.81678 0
    endloop
  endfacet
  facet normal 0.866025 -0.5 0
    outer loop
      vertex 12.1353 -8.81678 3
      vertex 12.1353 -8.81678 0
      vertex 13.7032 -6.10105 0
    endloop
  endfacet
  facet normal 0.866025 -0.5 0
    outer loop
      vertex 13.7032 -6.10105 3
      vertex 12.1353 -8.81678 3
      vertex 13.7032 -6.10105 0
    endloop
  endfacet
  facet normal 0.951057 -0.309017 0
    outer loop
      vertex 13.7032 -6.10105 3
      vertex 13.7032 -6.10105 0
      vertex 14.6722 -3.11867 0
    endloop
  endfacet
  facet normal 0.951057 -0.309017 0
    outer loop
      vertex 14.6722 -3.11867 3
      vertex 13.7032 -6.10105 3
      vertex 14.6722 -3.11867 0
    endloop
  endfacet
  facet normal 0.994522 -0.104528 0
    outer loop
      vertex 14.6722 -3.11867 3
      vertex 14.6722 -3.11867 0
      vertex 15 0 0
    endloop
  endfacet
  facet normal 0.994522 -0.104528 0
    outer loop
      vertex 15 0 3
      vertex 14.6722 -3.11867 3
      vertex 15 0 0
    endloop
  endfacet
  facet normal 0.994522 0.104528 0
    outer loop
      vertex 15 0 0
      vertex 14.6722 3.11867 0
      vertex 14.6722 3.11867 3
    endloop
  endfacet
  facet normal 0.994522 0.104528 0
    outer loop
      vertex 15 0 3
      vertex 15 0 0
      vertex 14.6722 3.11867 3
    endloop
  endfacet
  facet normal 0.951057 0.309017 0
    outer loop
      vertex 14.6722 3.11867 0
      vertex 13.7032 6.10105 0
      vertex 13.7032 6.10105 3
    endloop
  endfacet
  facet normal 0.951057 0.309017 0
    outer loop
      vertex 14.6722 3.11867 3
      vertex 14.6722 3.11867 0
      vertex 13.7032 6.10105 3
    endloop
  endfacet
  facet normal 0.866025 0.5 0
    outer loop
      vertex 13.7032 6.10105 0
      vertex 12.1353 8.81678 0
      vertex 12.1353 8.81678 3
    endloop
  endfacet
  facet normal 0.866025 0.5 0
    outer loop
      vertex 13.7032 6.10105 3
      vertex 13.7032 6.10105 0
      vertex 12.1353 8.81678 3
    endloop
  endfacet
  facet normal 0.743145 0.669131 0
    outer loop
      vertex 12.1353 8.81678 0
      vertex 10.037 11.1472 0
      vertex 10.037 11.1472 3
    endloop
  endfacet
  facet normal 0.743145 0.669131 0
    outer loop
      vertex 12.1353 8.81678 3
      vertex 12.1353 8.81678 0
      vertex 10.037 11.1472 3
    endloop
  endfacet
  facet normal 0.587785 0.809017 0
    outer loop
      vertex 7.5 12.9904 0
      vertex 7.5 12.9904 3
      vertex 10.037 11.1472 0
    endloop
  endfacet
  facet normal 0.587785 0.809017 0
    outer loop
      vertex 10.037 11.1472 0
      vertex 7.5 12.9904 3
      vertex 10.037 11.1472 3
    endloop
  endfacet
  facet normal 0.406737 0.913545 0
    outer loop
      vertex 4.63525 14.2658 0
      vertex 4.63525 14.2658 3
      vertex 7.5 12.9904 0
    endloop
  endfacet
  facet normal 0.406737 0.913545 0
    outer loop
      vertex 7.5 12.9904 0
      vertex 4.63525 14.2658 3
      vertex 7.5 12.9904 3
    endloop
  endfacet
  facet normal 0.207911 0.978148 0
    outer loop
      vertex 1.56793 14.9178 0
      vertex 1.56793 14.9178 3
      vertex 4.63525 14.2658 0
    endloop
  endfacet
  facet normal 0.207911 0.978148 0
    outer loop
      vertex 4.63525 14.2658 0
      vertex 1.56793 14.9178 3
      vertex 4.63525 14.2658 3
    endloop
  endfacet
  facet normal 0 1 0
    outer loop
      vertex 0 14.9178 0
      vertex 0 14.9178 3
      vertex 1.56793 14.9178 0
    endloop
  endfacet
  facet normal 0 1 0
    outer loop
      vertex 1.56793 14.9178 0
      vertex 0 14.9178 3
      vertex 1.56793 14.9178 3
    endloop
  endfacet
  facet normal 1 0 0
    outer loop
      vertex 0 14.9178 3
      vertex 0 14.9178 0
      vertex 0 15 0
    endloop
  endfacet
  facet normal 1 0 0
    outer loop
      vertex 0 15 3
      vertex 0 14.9178 3
      vertex 0 15 0
    endloop
  endfacet
  facet normal 0.309017 -0.951057 0
    outer loop
      vertex 0.386271 1.18882 0
      vertex 0.386271 1.18882 3
      vertex -1.01127 0.734732 3
    endloop
  endfacet
  facet normal 0.309017 -0.951057 0
    outer loop
      vertex -1.01127 0.734732 0
      vertex 0.386271 1.18882 0
      vertex -1.01127 0.734732 3
    endloop
  endfacet
  facet normal 1 0 0
    outer loop
      vertex -1.01127 0.734732 0
      vertex -1.01127 0.734732 3
      vertex -1.01127 -0.734732 3
    endloop
  endfacet
  facet normal 1 0 0
    outer loop
      vertex -1.01127 -0.734732 0
      vertex -1.01127 0.734732 0
      vertex -1.01127 -0.734732 3
    endloop
  endfacet
  facet normal -0.809017 -0.587785 0
    outer loop
      vertex 1.25 0 3
      vertex 0.386271 1.18882 3
      vertex 1.25 0 0
    endloop
  endfacet
  facet normal -0.809017 -0.587785 0
    outer loop
      vertex 1.25 0 0
      vertex 0.386271 1.18882 3
      vertex 0.386271 1.18882 0
    endloop
  endfacet
  facet normal -0.809017 0.587785 0
    outer loop
      vertex 1.25 0 3
      vertex 1.25 0 0
      vertex 0.386271 -1.18882 3
    endloop
  endfacet
  facet normal -0.809017 0.587785 0
    outer loop
      vertex 0.386271 -1.18882 3
      vertex 1.25 0 0
      vertex 0.386271 -1.18882 0
    endloop
  endfacet
  facet normal 0.309017 0.951057 0
    outer loop
      vertex 0.386271 -1.18882 3
      vertex 0.386271 -1.18882 0
      vertex -1.01127 -0.734732 3
    endloop
  endfacet
  facet normal 0.309017 0.951057 0
    outer loop
      vertex -1.01127 -0.734732 3
      vertex 0.386271 -1.18882 0
      vertex -1.01127 -0.734732 0
    endloop
  endfacet
  facet normal 0 1 0
    outer loop
      vertex -12 -12 40
      vertex -12 -12 50
      vertex 15 -12 40
    endloop
  endfacet
  facet normal 0 1 0
    outer loop
      vertex 13.0866 -12 49.6194
      vertex -12 -12 50
      vertex 15 -12 50
    endloop
  endfacet
  facet normal 0 1 0
    outer loop
      vertex 11.4645 -12 48.5355
      vertex -12 -12 50
      vertex 13.0866 -12 49.6194
    endloop
  endfacet
  facet normal 0 1 0
    outer loop
      vertex 10.3806 -12 46.9134
      vertex -12 -12 50
      vertex 11.4645 -12 48.5355
    endloop
  endfacet
  facet normal 0 1 0
    outer loop
      vertex 10 -12 45
      vertex -12 -12 50
      vertex 10.3806 -12 46.9134
    endloop
  endfacet
  facet normal 0 1 0
    outer loop
      vertex 15 -12 40
      vertex -12 -12 50
      vertex 10 -12 45
    endloop
  endfacet
  facet normal 0 1 0
    outer loop
      vertex 15 -12 45
      vertex 15 -12 40
      vertex 13.8674 -12 45
    endloop
  endfacet
  facet normal 0 1 0
    outer loop
      vertex 13.8674 -12 45
      vertex 15 -12 40
      vertex 10 -12 45
    endloop
  endfacet
  facet normal 0 1 -2.22045e-16
    outer loop
      vertex 10 -12 45
      vertex 10.3806 -12 46.9134
      vertex 13.8674 -12 45
    endloop
  endfacet
  facet normal 0 1 -2.22045e-16
    outer loop
      vertex 13.8674 -12 45
      vertex 10.3806 -12 46.9134
      vertex 11.4645 -12 48.5355
    endloop
  endfacet
  facet normal 0 1 -2.22045e-16
    outer loop
      vertex 13.8674 -12 45
      vertex 11.4645 -12 48.5355
      vertex 13.0866 -12 49.6194
    endloop
  endfacet
  facet normal 0 1 -2.22045e-16
    outer loop
      vertex 13.8674 -12 45.8229
      vertex 13.0866 -12 49.6194
      vertex 15 -12 50
    endloop
  endfacet
  facet normal 0 1 -2.22045e-16
    outer loop
      vertex 15.4326 -12 46.3315
      vertex 16.9134 -12 49.6194
      vertex 18.5355 -12 48.5355
    endloop
  endfacet
  facet normal 0 1 -2.22045e-16
    outer loop
      vertex 13.8674 -12 45.8229
      vertex 16.9134 -12 49.6194
      vertex 15.4326 -12 46.3315
    endloop
  endfacet
  facet normal 0 1 -2.22045e-16
    outer loop
      vertex 16.4 -12 45
      vertex 20 -12 45
      vertex 19.6194 -12 43.0866
    endloop
  endfacet
  facet normal 0 1 -2.22045e-16
    outer loop
      vertex 15.4326 -12 46.3315
      vertex 19.6194 -12 46.9134
      vertex 16.4 -12 45
    endloop
  endfacet
  facet normal 0 1 -2.22045e-16
    outer loop
      vertex 16.4 -12 45
      vertex 19.6194 -12 43.0866
      vertex 15.4326 -12 43.6685
    endloop
  endfacet
  facet normal 0 1 -2.22045e-16
    outer loop
      vertex 15.4326 -12 43.6685
      vertex 18.5355 -12 41.4645
      vertex 15 -12 43.8091
    endloop
  endfacet
  facet normal 0 1 -2.22045e-16
    outer loop
      vertex 19.6194 -12 43.0866
      vertex 18.5355 -12 41.4645
      vertex 15.4326 -12 43.6685
    endloop
  endfacet
  facet normal 0 1 -2.22045e-16
    outer loop
      vertex 19.6194 -12 46.9134
      vertex 20 -12 45
      vertex 16.4 -12 45
    endloop
  endfacet
  facet normal 0 1 -2.22045e-16
    outer loop
      vertex 15.4326 -12 46.3315
      vertex 18.5355 -12 48.5355
      vertex 19.6194 -12 46.9134
    endloop
  endfacet
  facet normal 0 1 -2.22045e-16
    outer loop
      vertex 13.8674 -12 45.8229
      vertex 15 -12 50
      vertex 16.9134 -12 49.6194
    endloop
  endfacet
  facet normal 0 1 -2.22045e-16
    outer loop
      vertex 13.8674 -12 45
      vertex 13.0866 -12 49.6194
      vertex 13.8674 -12 45.8229
    endloop
  endfacet
  facet normal 0 1 -2.22045e-16
    outer loop
      vertex 15 -12 43.8091
      vertex 18.5355 -12 41.4645
      vertex 16.9134 -12 40.3806
    endloop
  endfacet
  facet normal 0 1 -2.22045e-16
    outer loop
      vertex 15 -12 43.8091
      vertex 16.9134 -12 40.3806
      vertex 15 -12 40
    endloop
  endfacet
  facet normal -0.809017 -1.30515e-16 -0.587785
    outer loop
      vertex 16.4 -12 45
      vertex 16.4 -15 45
      vertex 15.4326 -12 46.3315
    endloop
  endfacet
  facet normal -0.809017 -1.30515e-16 -0.587785
    outer loop
      vertex 15.4326 -12 46.3315
      vertex 16.4 -15 45
      vertex 15.4326 -15 46.3315
    endloop
  endfacet
  facet normal 0 -1 2.22045e-16
    outer loop
      vertex 15 -12 43.8091
      vertex 15 -12 45
      vertex 13.8674 -12 45
    endloop
  endfacet
  facet normal 0 -1 2.22045e-16
    outer loop
      vertex 13.8674 -12 44.1771
      vertex 15 -12 43.8091
      vertex 13.8674 -12 45
    endloop
  endfacet
  facet normal 0.309017 2.11177e-16 0.951056
    outer loop
      vertex 15.4326 -15 43.6685
      vertex 15.4326 -12 43.6685
      vertex 15 -12 43.8091
    endloop
  endfacet
  facet normal 0.309017 2.11177e-16 0.951056
    outer loop
      vertex 13.8674 -15 44.1771
      vertex 15.4326 -15 43.6685
      vertex 13.8674 -12 44.1771
    endloop
  endfacet
  facet normal 0.309017 2.11177e-16 0.951056
    outer loop
      vertex 13.8674 -12 44.1771
      vertex 15.4326 -15 43.6685
      vertex 15 -12 43.8091
    endloop
  endfacet
  facet normal -0.809017 1.30515e-16 0.587785
    outer loop
      vertex 16.4 -12 45
      vertex 15.4326 -12 43.6685
      vertex 16.4 -15 45
    endloop
  endfacet
  facet normal -0.809017 1.30515e-16 0.587785
    outer loop
      vertex 16.4 -15 45
      vertex 15.4326 -12 43.6685
      vertex 15.4326 -15 43.6685
    endloop
  endfacet
  facet normal 0.19509 2.17778e-16 0.980785
    outer loop
      vertex 15 -12 50
      vertex 15 -15 50
      vertex 16.9134 -15 49.6194
    endloop
  endfacet
  facet normal 0.19509 2.17778e-16 0.980785
    outer loop
      vertex 16.9134 -12 49.6194
      vertex 15 -12 50
      vertex 16.9134 -15 49.6194
    endloop
  endfacet
  facet normal 0.55557 1.84623e-16 0.83147
    outer loop
      vertex 16.9134 -12 49.6194
      vertex 16.9134 -15 49.6194
      vertex 18.5355 -15 48.5355
    endloop
  endfacet
  facet normal 0.55557 1.84623e-16 0.83147
    outer loop
      vertex 18.5355 -12 48.5355
      vertex 16.9134 -12 49.6194
      vertex 18.5355 -15 48.5355
    endloop
  endfacet
  facet normal 0.83147 1.23361e-16 0.55557
    outer loop
      vertex 18.5355 -12 48.5355
      vertex 18.5355 -15 48.5355
      vertex 19.6194 -15 46.9134
    endloop
  endfacet
  facet normal 0.83147 1.23361e-16 0.55557
    outer loop
      vertex 19.6194 -12 46.9134
      vertex 18.5355 -12 48.5355
      vertex 19.6194 -15 46.9134
    endloop
  endfacet
  facet normal 0.980785 4.33187e-17 0.19509
    outer loop
      vertex 19.6194 -12 46.9134
      vertex 19.6194 -15 46.9134
      vertex 20 -15 45
    endloop
  endfacet
  facet normal 0.980785 4.33187e-17 0.19509
    outer loop
      vertex 20 -12 45
      vertex 19.6194 -12 46.9134
      vertex 20 -15 45
    endloop
  endfacet
  facet normal 0.980785 -4.33187e-17 -0.19509
    outer loop
      vertex 20 -15 45
      vertex 19.6194 -15 43.0866
      vertex 19.6194 -12 43.0866
    endloop
  endfacet
  facet normal 0.980785 -4.33187e-17 -0.19509
    outer loop
      vertex 20 -12 45
      vertex 20 -15 45
      vertex 19.6194 -12 43.0866
    endloop
  endfacet
  facet normal 0.83147 -1.23361e-16 -0.55557
    outer loop
      vertex 19.6194 -15 43.0866
      vertex 18.5355 -15 41.4645
      vertex 18.5355 -12 41.4645
    endloop
  endfacet
  facet normal 0.83147 -1.23361e-16 -0.55557
    outer loop
      vertex 19.6194 -12 43.0866
      vertex 19.6194 -15 43.0866
      vertex 18.5355 -12 41.4645
    endloop
  endfacet
  facet normal 0.55557 -1.84623e-16 -0.83147
    outer loop
      vertex 16.9134 -15 40.3806
      vertex 16.9134 -12 40.3806
      vertex 18.5355 -15 41.4645
    endloop
  endfacet
  facet normal 0.55557 -1.84623e-16 -0.83147
    outer loop
      vertex 18.5355 -15 41.4645
      vertex 16.9134 -12 40.3806
      vertex 18.5355 -12 41.4645
    endloop
  endfacet
  facet normal 1 0 0
    outer loop
      vertex 15 -12 45
      vertex 15 -12 43.8091
      vertex 15 -12 40
    endloop
  endfacet
endsolid OpenSCAD_Model
